<svg width="413" height="624" viewBox="0 0 413 624" preserveAspectRatio="none" xmlns="http://www.w3.org/2000/svg" xmlns:xlink="http://www.w3.org/1999/xlink" overflow="hidden"><defs></defs><g><text font-family="Arial" font-weight="700" font-size="14" x="83" y="24.5332">Expert Knowledge Domain Model</text><g id="elem_ExpertKnowledge"><rect x="77" y="45.6094" rx="2.5" ry="2.5" width="234" height="370.188" id="ExpertKnowledge" stroke="#181818" stroke-width="0.5" fill="#F1F1F1"/><text font-family="Arial" font-size="14" x="139.5" y="65.1426">ExpertKnowledge</text><line x1="78" y1="73.2188" x2="310" y2="73.2188" stroke="#181818" stroke-width="0.5"/><text font-family="Arial" font-size="14" x="83" y="91.752">id: string</text><text font-family="Arial" font-size="14" x="83" y="109.361">insightId: string</text><text font-family="Arial" font-size="14" x="83" y="126.971">type: string</text><text font-family="Arial" font-size="14" x="83" y="144.58">theme: string</text><text font-family="Arial" font-size="14" x="83" y="162.19">subtype: string</text><text font-family="Arial" font-size="14" x="83" y="179.799">plant: {string, string}</text><text font-family="Arial" font-size="14" x="83" y="197.408">userName: string</text><text font-family="Arial" font-size="14" x="83" y="215.018">createdDate: datetime</text><text font-family="Arial" font-size="14" x="83" y="232.627">status: string</text><text font-family="Arial" font-size="14" x="83" y="250.236">subject: string</text><text font-family="Arial" font-size="14" x="83" y="267.846">knowledgeData: string</text><text font-family="Arial" font-size="14" x="83" y="285.455">images: {string, string}[0..*]</text><text font-family="Arial" font-size="14" x="83" y="303.065">validateRelatedActions: bool</text><text font-family="Arial" font-size="14" x="83" y="320.674">updatedDate: datetime</text><text font-family="Arial" font-size="14" x="83" y="338.283">relatedActions: RelatedActions[0..*]</text><text font-family="Arial" font-size="14" x="83" y="355.893">reviewerName: string</text><text font-family="Arial" font-size="14" x="83" y="373.502">recommendation: string</text><text font-family="Arial" font-size="14" x="83" y="391.111">scoreData: ScoreData</text><text font-family="Arial" font-size="14" x="83" y="408.721">parameters: {string, string}[0..*]</text></g><g id="elem_RelatedActions"><rect x="7" y="502.609" rx="2.5" ry="2.5" width="158" height="106.047" id="RelatedActions" stroke="#181818" stroke-width="0.5" fill="#F1F1F1"/><text font-family="Arial" font-size="14" x="38.5" y="522.143">RelatedActions</text><line x1="8" y1="530.219" x2="164" y2="530.219" stroke="#181818" stroke-width="0.5"/><text font-family="Arial" font-size="14" x="13" y="548.752">id: string</text><text font-family="Arial" font-size="14" x="13" y="566.361">title: string</text><text font-family="Arial" font-size="14" x="13" y="583.971">created_date: datetime</text><text font-family="Arial" font-size="14" x="13" y="601.58">action_details: string</text></g><g id="elem_ScoreData"><rect x="200" y="493.609" rx="2.5" ry="2.5" width="206" height="123.656" id="ScoreData" stroke="#181818" stroke-width="0.5" fill="#F1F1F1"/><text font-family="Arial" font-size="14" x="269.5" y="513.143">ScoreData</text><line x1="201" y1="521.219" x2="405" y2="521.219" stroke="#181818" stroke-width="0.5"/><text font-family="Arial" font-size="14" x="206" y="539.752">clarity: {string, string}</text><text font-family="Arial" font-size="14" x="206" y="557.361">professionalism: {string, string}</text><text font-family="Arial" font-size="14" x="206" y="574.971">action_oriented: {string, string}</text><text font-family="Arial" font-size="14" x="206" y="592.58">toxicity: {string, string}</text><text font-family="Arial" font-size="14" x="206" y="610.189">summary: string</text></g><g id="link_ExpertKnowledge_RelatedActions"><path d="M132.43 415.749C121.82 447.489 111.6 478.029 103.47 502.359" id="ExpertKnowledge-RelatedActions" stroke="#181818" fill="none"/><path d="M124.414 459.527 130.07 451.881 124.495 450.017 124.414 459.527Z" stroke="#000000"/><text font-family="Arial" font-size="13" x="135" y="460.104">Items of</text><text font-family="Arial" font-size="13" x="122.685" y="437.396">1</text><text font-family="Arial" font-size="13" x="100.482" y="491.644">*</text></g><g id="link_ExpertKnowledge_ScoreData"><path d="M256.14 415.749C265.56 443.659 274.67 470.649 282.31 493.299" id="ExpertKnowledge-ScoreData" stroke="#181818" fill="none"/><path d="M276.599 459.523 276.491 450.013 270.922 451.892 276.599 459.523Z" stroke="#000000"/><text font-family="Arial" font-size="13" x="284" y="460.104">Items of</text><text font-family="Arial" font-size="13" x="251.614" y="437.396">1</text><text font-family="Arial" font-size="13" x="272.513" y="482.705">1</text></g></g></svg>