<svg width="483" height="422" viewBox="0 0 483 422" preserveAspectRatio="none" xmlns="http://www.w3.org/2000/svg" xmlns:xlink="http://www.w3.org/1999/xlink" overflow="hidden"><defs></defs><g><rect x="74" y="5" width="321" height="27.6094" id="_title" fill="none"/><text font-family="Arial" font-weight="700" font-size="14" x="79" y="24.5332">AOT Smart KPIs Configuration Domain Model</text><g id="elem_KPIDefinition"><rect x="7" y="45.6094" rx="2.5" ry="2.5" width="252" height="370.188" id="KPIDefinition" stroke="#181818" stroke-width="0.5" fill="#F1F1F1"/><text font-family="Arial" font-size="14" x="91" y="65.1426">KPI Definition</text><line x1="8" y1="73.2188" x2="258" y2="73.2188" stroke="#181818" stroke-width="0.5"/><text font-family="Arial" font-size="14" x="13" y="91.752">id: string</text><text font-family="Arial" font-size="14" x="13" y="109.361">name: string</text><text font-family="Arial" font-size="14" x="13" y="126.971">description: string</text><text font-family="Arial" font-size="14" x="13" y="144.58">department: string</text><text font-family="Arial" font-size="14" x="13" y="162.19">formulaActual: string</text><text font-family="Arial" font-size="14" x="13" y="179.799">formulaForecast: string</text><text font-family="Arial" font-size="14" x="13" y="197.408">formulaHistoricalBenchmark: string</text><text font-family="Arial" font-size="14" x="13" y="215.018">formulaTarget: string</text><text font-family="Arial" font-size="14" x="13" y="232.627">responsibleRole: string</text><text font-family="Arial" font-size="14" x="13" y="250.236">assetHierarchyLevel: string</text><text font-family="Arial" font-size="14" x="13" y="267.846">mappedAssets: {string}[0..*]</text><text font-family="Arial" font-size="14" x="13" y="285.455">calculationFrequency: string</text><text font-family="Arial" font-size="14" x="13" y="303.065">sensitivity: bool</text><text font-family="Arial" font-size="14" x="13" y="320.674">status: string</text><text font-family="Arial" font-size="14" x="13" y="338.283">version: string</text><text font-family="Arial" font-size="14" x="13" y="355.893">dependentAssetHierarchyLevel: string</text><text font-family="Arial" font-size="14" x="13" y="373.502">ragConfig: RAGConfig</text><text font-family="Arial" font-size="14" x="13" y="391.111">unitOfMeasurement: string</text><text font-family="Arial" font-size="14" x="13" y="408.721">attributes: {string, string}[0..*]</text></g><g id="link_KPIDefinition_KPIDefinition"><path d="M259.22 198.519C279.83 203.109 294 213.809 294 230.609 294 247.409 279.83 258.109 259.22 262.699" id="KPIDefinition-KPIDefinition" stroke="#181818" fill="none"/><path d="M300.087 235.666 300.989 226.198 295.252 227.476 300.087 235.666Z" stroke="#000000"/><text font-family="Arial" font-size="13" x="313" y="236.105">Contributors</text><text font-family="Arial" font-size="13" x="267.125" y="193.577">1</text><text font-family="Arial" font-size="13" x="267.064" y="261.668">*</text></g><g id="link_KPIDefinition_KPIDefinition"><path d="M259.22 162.889C325.49 154.649 389 177.219 389 230.609 389 283.999 325.49 306.569 259.22 298.329" id="KPIDefinition-KPIDefinition-1" stroke="#181818" fill="none"/><path d="M393.383 235.747 397.416 227.134 391.583 226.408 393.383 235.747Z" stroke="#000000"/><text font-family="Arial" font-size="13" x="408" y="236.105">Influencers</text><text font-family="Arial" font-size="13" x="267.125" y="155.775">1</text><text font-family="Arial" font-size="13" x="267.064" y="299.469">*</text></g></g></svg>