<svg width="493.333" height="197.944" viewBox="0 0 370 148.458" xmlns="http://www.w3.org/2000/svg" xmlns:xlink="http://www.w3.org/1999/xlink" color-interpolation-filters="sRGB" stroke-linecap="square" stroke-miterlimit="3" fill="none" fill-rule="evenodd" font-size="12" xml:space="preserve" overflow="visible"><g><g id="shape1000-1" transform="translate(127.416 -39.382)"><path d="M60.23 118.34 54.48 136.95 39.42 148.46 20.81 148.46 5.75 136.95 0 118.34 5.75 99.73 20.81 88.23 39.42 88.23 54.48 99.73 60.23 118.34Z" stroke="#A5A5A5" stroke-width="2" stroke-linecap="round" stroke-linejoin="round" fill="#FFFFFF"/><text fill="#5C5C5C" font-family="Calibri" font-size="83.3336%" x="7.58" y="115.34">Knowledge <tspan font-size="100%" x="17.57" dy="1.2em">Graph</tspan></text></g><g id="shape1001-5" transform="translate(19 -39.382)"><path d="M0 118.34C0.0857237 101.708 13.6382 88.2945 30.2702 88.3802 46.7812 88.4653 60.1449 101.829 60.23 118.34 60.3157 134.972 46.9023 148.524 30.2702 148.61 13.6382 148.696 0.0857232 135.282-5.0581e-07 118.65-0.000533839 118.547-0.000533839 118.443-5.0581e-07 118.34Z" stroke="#A5A5A5" stroke-width="2" stroke-linecap="round" stroke-linejoin="round" fill="#FFFFFF"/><text fill="#5C5C5C" font-family="Calibri" font-size="83.3336%" x="13.43" y="109.34">External <tspan font-size="100%" x="21.02" dy="1.2em">data </tspan><tspan font-size="100%" x="14.6" dy="1.2em">sources</tspan></text></g><g id="shape1002-10" transform="translate(235.831 -45.4051)"><rect x="0" y="100.273" width="72.2771" height="48.1847" stroke="#A5A5A5" stroke-width="2" stroke-linecap="round" stroke-linejoin="round" fill="#FFFFFF"/><text fill="#5C5C5C" font-family="Calibri" font-size="83.3336%" x="11.15" y="127.37">Applications</text></g><g id="shape1003-13" transform="translate(84.5239 -60.4628)"><path d="M0 148.46 18.8 148.46 37.6 139.42 18.8 130.39 0 130.39 0 148.46Z" stroke="#FDBF01" stroke-width="2" stroke-linecap="round" stroke-linejoin="round" fill="#FFFFFF"/></g><g id="shape1005-15" transform="matrix(-1 1.22465e-16 -1.22465e-16 -1 230.538 218.384)"><path d="M0 148.46 18.8 148.46 37.6 139.42 18.8 130.39 0 130.39 0 148.46Z" stroke="#FDBF01" stroke-width="2" stroke-linecap="round" stroke-linejoin="round" fill="#FFFFFF"/></g><g id="group1006-17" transform="translate(313.401 -47.0699)"><g id="shape1007-18"><path d="M0 140.26 18.8 132.06 18.8 136.03C29.1811 136.031 37.5981 131.471 37.6 125.845 37.6 125.843 37.6 125.842 37.6 125.84L37.6 134.3C37.5932 139.924 29.1776 144.481 18.8 144.48L18.8 148.46 0 140.26Z" stroke="#FEBF01" stroke-width="2" stroke-linecap="round" stroke-linejoin="round" fill="#E4E4E4"/></g><g id="shape1006-20"><path d="M0 115.65 0 124.11C20.7621 124.109 37.5962 128.669 37.6 134.295 37.6 134.297 37.6 134.298 37.6 134.3L37.6 125.84C37.6067 120.214 20.7812 115.652 0.0190794 115.65 0.0127191 115.65 0.00635879 115.65-1.52579e-06 115.65Z" stroke="#FDBF01" stroke-width="2" stroke-linecap="round" stroke-linejoin="round" fill="#FFFFFF"/></g></g><g id="shape1008-22" transform="translate(85.254 -119.941)"><path d="M0 148.46 263.07 148.46 263.07 139.42 0 139.42 0 148.46Z" stroke="#A5A5A5" stroke-width="2" stroke-linecap="round" stroke-linejoin="round" stroke-dasharray="14 10" fill="#FFFFFF"/><text fill="#5C5C5C" font-family="Calibri" font-size="66.6664%" x="104.78" y="146.34">Stream analytics</text></g><g id="group1009-25" transform="matrix(6.12323e-17 1 -1 6.12323e-17 239.735 33.3359)"><g id="shape1010-26"><path d="M-6 145.45 26.35 145.45 26.35 148.46 29.36 142.43 26.35 136.41 26.35 139.42-6 139.42-6 145.45Z" fill="#FFFFFF"/><path d="M-6 145.45 26.35 145.45 26.35 148.46 29.36 142.43 26.35 136.41 26.35 139.42-6 139.42" stroke-width="2" stroke-linecap="round" stroke-linejoin="round"/></g><g id="shape1011-29"><path d="M0 145.45 26.35 145.45 26.35 148.46 29.36 142.43 26.35 136.41 26.35 139.42 0 139.42" stroke="#A5A5A5" stroke-width="2" stroke-linecap="round" stroke-linejoin="round"/></g><g id="shape1012-32" transform="translate(-4 -5.01154)"><rect x="0" y="146.435" width="4" height="2.02309" stroke-width="2" stroke-linecap="round" stroke-linejoin="round" fill="#FFFFFF"/></g></g><g id="group1013-34" transform="matrix(6.12323e-17 1 -1 6.12323e-17 357.185 32.583)"><g id="shape1014-35"><path d="M-6 145.45 26.35 145.45 26.35 148.46 29.36 142.43 26.35 136.41 26.35 139.42-6 139.42-6 145.45Z" fill="#FFFFFF"/><path d="M-6 145.45 26.35 145.45 26.35 148.46 29.36 142.43 26.35 136.41 26.35 139.42-6 139.42" stroke-width="2" stroke-linecap="round" stroke-linejoin="round"/></g><g id="shape1015-38"><path d="M0 145.45 26.35 145.45 26.35 148.46 29.36 142.43 26.35 136.41 26.35 139.42 0 139.42" stroke="#A5A5A5" stroke-width="2" stroke-linecap="round" stroke-linejoin="round"/></g><g id="shape1016-41" transform="translate(-4 -5.01154)"><rect x="0" y="146.435" width="4" height="2.02309" stroke-width="2" stroke-linecap="round" stroke-linejoin="round" fill="#FFFFFF"/></g></g><g id="group1017-43" transform="matrix(6.12323e-17 1 -1 6.12323e-17 465.601 32.583)"><g id="shape1018-44"><path d="M-6 145.45 26.35 145.45 26.35 148.46 29.36 142.43 26.35 136.41 26.35 139.42-6 139.42-6 145.45Z" fill="#FFFFFF"/><path d="M-6 145.45 26.35 145.45 26.35 148.46 29.36 142.43 26.35 136.41 26.35 139.42-6 139.42" stroke-width="2" stroke-linecap="round" stroke-linejoin="round"/></g><g id="shape1019-47"><path d="M0 145.45 26.35 145.45 26.35 148.46 29.36 142.43 26.35 136.41 26.35 139.42 0 139.42" stroke="#A5A5A5" stroke-width="2" stroke-linecap="round" stroke-linejoin="round"/></g><g id="shape1020-50" transform="translate(-4 -5.01154)"><rect x="0" y="146.435" width="4" height="2.02309" stroke-width="2" stroke-linecap="round" stroke-linejoin="round" fill="#FFFFFF"/></g></g></g></svg>