<svg width="423" height="550" viewBox="0 0 423 550" preserveAspectRatio="none" xmlns="http://www.w3.org/2000/svg" xmlns:xlink="http://www.w3.org/1999/xlink" overflow="hidden"><defs></defs><g><rect x="91" y="5" width="227" height="27.6094" id="_title" fill="none"/><text font-family="Arial" font-weight="700" font-size="14" x="96" y="24.5332">AOT MLOps - Learning process</text><g id="cluster_MLOps"><rect x="7" y="45.6094" rx="2.5" ry="2.5" width="410" height="499" stroke="#444444" stroke-dasharray="7 7" fill="none"/><text fill="#444444" font-family="Arial" font-weight="700" font-size="16" x="185" y="64.2188">MLOps</text></g><g id="cluster_trainingCo"><rect x="39" y="261.609" rx="2.5" ry="2.5" width="346" height="251" stroke="#87905C" fill="#FFFFFF"/><text fill="#FFA500" font-family="Arial" font-weight="700" font-size="16" x="71.5" y="280.219">Machine learning (re)training pipeline</text></g><g id="cluster_dataSource"><rect x="51" y="100.609" rx="2.5" ry="2.5" width="330" height="111" stroke="#87905C" fill="#FFFFFF"/><text fill="#FFA500" font-family="Arial" font-weight="700" font-size="16" x="104" y="119.219">Machine learning data source</text></g><g id="elem_train"><rect x="82" y="308.609" rx="2.5" ry="2.5" width="110" height="40.125" stroke="#78A8D8" stroke-width="0.5" fill="#85BBF0"/><text font-family="Arial" font-weight="700" font-size="16" x="92" y="335.219">Train model</text></g><g id="elem_val"><rect x="229" y="308.609" rx="2.5" ry="2.5" width="132" height="40.125" stroke="#78A8D8" stroke-width="0.5" fill="#85BBF0"/><text font-family="Arial" font-weight="700" font-size="16" x="239" y="335.219">Validate model</text></g><g id="elem_deploy"><rect x="232.5" y="378.609" rx="2.5" ry="2.5" width="125" height="40.125" stroke="#78A8D8" stroke-width="0.5" fill="#85BBF0"/><text font-family="Arial" font-weight="700" font-size="16" x="242.5" y="405.219">Deploy model</text></g><g id="elem_mon"><rect x="230.5" y="448.609" rx="2.5" ry="2.5" width="129" height="40.125" stroke="#78A8D8" stroke-width="0.5" fill="#85BBF0"/><text font-family="Arial" font-weight="700" font-size="16" x="240.5" y="475.219">Monitor model</text></g><g id="elem_data"><rect x="227.5" y="147.609" rx="2.5" ry="2.5" width="129" height="40.125" stroke="#78A8D8" stroke-width="0.5" fill="#85BBF0"/><text font-family="Arial" font-weight="700" font-size="16" x="237.5" y="174.219">Business data</text></g><g id="elem_files"><rect x="94" y="147.609" rx="2.5" ry="2.5" width="98" height="40.125" stroke="#78A8D8" stroke-width="0.5" fill="#85BBF0"/><text font-family="Arial" font-weight="700" font-size="16" x="104" y="174.219">Static files</text></g><g id="link_train_val"><path d="M192.26 328.609C201.51 328.609 211.23 328.609 220.86 328.609" id="train-to-val" stroke="#666666" fill="none"/><path d="M228.91 328.609 220.91 325.609 220.91 331.609 228.91 328.609Z" stroke="#666666" fill="#666666"/></g><g id="link_val_deploy"><path d="M295 348.909C295 355.569 295 363.169 295 370.339" id="val-to-deploy" stroke="#666666" fill="none"/><path d="M295 378.489 298 370.489 292 370.489 295 378.489Z" stroke="#666666" fill="#666666"/></g><g id="link_deploy_mon"><path d="M295 418.909C295 425.569 295 433.169 295 440.339" id="deploy-to-mon" stroke="#666666" fill="none"/><path d="M295 448.489 298 440.489 292 440.489 295 448.489Z" stroke="#666666" fill="#666666"/></g><g id="link_dataSource_train"><path d="M71.6717 211.78C71.7083 211.882 71.745 211.984 71.7818 212.086 71.929 212.493 72.0771 212.9 72.2263 213.308 72.8228 214.936 73.4353 216.561 74.0628 218.173 75.3177 221.396 76.6325 224.567 78 227.609 89.77 253.809 106.72 281.829 119.43 301.519" id="dataSource-to-train" stroke="#666666" fill="none"/><path d="M123.91 308.379 122.051 300.04 117.026 303.319 123.91 308.379Z" stroke="#666666" fill="#666666"/></g><g id="link_mon_train"><path d="M230.38 465.529C195.89 460.719 156.09 448.419 134 418.609 120.95 400.999 123.27 375.609 127.95 356.449" id="mon-to-train" stroke="#666666" fill="none"/><path d="M130.05 348.659 125.069 355.601 130.862 357.165 130.05 348.659Z" stroke="#666666" fill="#666666"/><text fill="#666666" font-family="Arial" font-weight="700" font-size="12" x="135" y="403.566">Retrain model</text></g></g></svg>