<svg width="902" height="939" viewBox="0 0 902 939" preserveAspectRatio="none" xmlns="http://www.w3.org/2000/svg" xmlns:xlink="http://www.w3.org/1999/xlink" overflow="hidden"><defs></defs><g><rect x="333.5" y="5" width="221" height="27.6094" id="_title" fill="none"/><text font-family="Arial" font-weight="700" font-size="14" x="338.5" y="24.5332">AOT Smart KPIs Domain Model</text><g id="elem_KPIDefinition"><rect x="426" y="45.6094" rx="2.5" ry="2.5" width="252" height="387.797" id="KPIDefinition" stroke="#181818" stroke-width="0.5" fill="#F1F1F1"/><text font-family="Arial" font-size="14" x="510" y="65.1426">KPI Definition</text><line x1="427" y1="73.2188" x2="677" y2="73.2188" stroke="#181818" stroke-width="0.5"/><text font-family="Arial" font-size="14" x="432" y="91.752">id: string</text><text font-family="Arial" font-size="14" x="432" y="109.361">name: string</text><text font-family="Arial" font-size="14" x="432" y="126.971">description: string</text><text font-family="Arial" font-size="14" x="432" y="144.58">department: string</text><text font-family="Arial" font-size="14" x="432" y="162.19">formulaActual: string</text><text font-family="Arial" font-size="14" x="432" y="179.799">formulaForecast: string</text><text font-family="Arial" font-size="14" x="432" y="197.408">formulaHistoricalBenchmark: string</text><text font-family="Arial" font-size="14" x="432" y="215.018">formulaTarget: string</text><text font-family="Arial" font-size="14" x="432" y="232.627">responsibleRole: string</text><text font-family="Arial" font-size="14" x="432" y="250.236">assetHierarchyLevel: string</text><text font-family="Arial" font-size="14" x="432" y="267.846">mainContext: {string}[0..*]</text><text font-family="Arial" font-size="14" x="432" y="285.455">secondaryContext: {string}[0..*]</text><text font-family="Arial" font-size="14" x="432" y="303.065">calculationFrequency: string</text><text font-family="Arial" font-size="14" x="432" y="320.674">sensitivity: bool</text><text font-family="Arial" font-size="14" x="432" y="338.283">status: string</text><text font-family="Arial" font-size="14" x="432" y="355.893">version: string</text><text font-family="Arial" font-size="14" x="432" y="373.502">dependentAssetHierarchyLevel: string</text><text font-family="Arial" font-size="14" x="432" y="391.111">ragConfig: RAGConfig</text><text font-family="Arial" font-size="14" x="432" y="408.721">unitOfMeasurement: string</text><text font-family="Arial" font-size="14" x="432" y="426.33">attributes: {string, string}[0..*]</text></g><g id="elem_Asset"><rect x="7" y="730.609" rx="2.5" ry="2.5" width="196" height="88.4375" id="Asset" stroke="#181818" stroke-width="0.5" fill="#F1F1F1"/><text font-family="Arial" font-size="14" x="87.5" y="750.143">Asset</text><line x1="8" y1="758.219" x2="202" y2="758.219" stroke="#181818" stroke-width="0.5"/><text font-family="Arial" font-size="14" x="13" y="776.752">id: string</text><text font-family="Arial" font-size="14" x="13" y="794.361">roles: {string, string}[0..*]</text><text font-family="Arial" font-size="14" x="13" y="811.971">attributes: {string, string}[0..*]</text></g><g id="elem_KPIInstance"><rect x="454" y="511.609" rx="2.5" ry="2.5" width="196" height="141.266" id="KPIInstance" stroke="#181818" stroke-width="0.5" fill="#F1F1F1"/><text font-family="Arial" font-size="14" x="513" y="531.143">KPI Instance</text><line x1="455" y1="539.219" x2="649" y2="539.219" stroke="#181818" stroke-width="0.5"/><text font-family="Arial" font-size="14" x="460" y="557.752">id: string</text><text font-family="Arial" font-size="14" x="460" y="575.361">name: string</text><text font-family="Arial" font-size="14" x="460" y="592.971">description: string</text><text font-family="Arial" font-size="14" x="460" y="610.58">isActive: bool</text><text font-family="Arial" font-size="14" x="460" y="628.189">roles: {string, string}[0..*]</text><text font-family="Arial" font-size="14" x="460" y="645.799">attributes: {string, string}[0..*]</text></g><g id="elem_Parameter"><rect x="238" y="730.609" rx="2.5" ry="2.5" width="180" height="88.4375" id="Parameter" stroke="#181818" stroke-width="0.5" fill="#F1F1F1"/><text font-family="Arial" font-size="14" x="295" y="750.143">Parameter</text><line x1="239" y1="758.219" x2="417" y2="758.219" stroke="#181818" stroke-width="0.5"/><text font-family="Arial" font-size="14" x="244" y="776.752">name: string</text><text font-family="Arial" font-size="14" x="244" y="794.361">description: string</text><text font-family="Arial" font-size="14" x="244" y="811.971">unitOfMEasurement: string</text></g><g id="elem_NTimeseries"><rect x="507" y="879.609" rx="2.5" ry="2.5" width="220" height="53.2188" id="NTimeseries" stroke="#181818" stroke-width="0.5" fill="#F1F1F1"/><text font-family="Arial" font-size="14" x="555" y="899.143">Numeric Timeseries</text><line x1="508" y1="907.219" x2="726" y2="907.219" stroke="#181818" stroke-width="0.5"/><text font-family="Arial" font-size="14" x="513" y="925.752">values: {Timestamp, double}[0..*]</text></g><g id="link_KPIDefinition_KPIDefinition"><path d="M678.22 219.489C698.83 222.369 713 229.069 713 239.609 713 250.149 698.83 256.849 678.22 259.729" id="KPIDefinition-KPIDefinition" stroke="#181818" fill="none"/><path d="M718.692 244.737 720.351 235.372 714.529 236.186 718.692 244.737Z" stroke="#000000"/><text font-family="Arial" font-size="13" x="732" y="245.105">Contributors</text><text font-family="Arial" font-size="13" x="686.125" y="215.288">1</text><text font-family="Arial" font-size="13" x="686.064" y="257.98">*</text></g><g id="link_KPIDefinition_KPIDefinition"><path d="M678.22 197.149C744.49 191.979 808 206.139 808 239.609 808 273.079 744.49 287.239 678.22 282.069" id="KPIDefinition-KPIDefinition-1" stroke="#181818" fill="none"/><path d="M812.611 244.77 816.245 235.981 810.385 235.524 812.611 244.77Z" stroke="#000000"/><text font-family="Arial" font-size="13" x="827" y="245.105">Influencers</text><text font-family="Arial" font-size="13" x="686.125" y="191.587">1</text><text font-family="Arial" font-size="13" x="686.064" y="281.681">*</text></g><g id="link_KPIInstance_NTimeseries"><path d="M520.82 652.749C503.86 701.229 490.78 766.309 515 818.609 526.81 844.099 550.24 864.819 571.67 879.579" id="KPIInstance-NTimeseries" stroke="#181818" fill="none"/><path d="M521.094 779.664 521.983 770.195 516.247 771.481 521.094 779.664Z" stroke="#000000"/><text font-family="Arial" font-size="13" x="529" y="780.105">Actuals</text><text font-family="Arial" font-size="13" x="510.244" y="674.359">1</text><text font-family="Arial" font-size="13" x="552.768" y="868.674">1</text></g><g id="link_KPIInstance_NTimeseries"><path d="M566.1 652.979C580.48 724.189 602.01 830.869 611.81 879.409" id="KPIInstance-NTimeseries-1" stroke="#181818" fill="none"/><path d="M605.989 779.686 607.08 770.239 601.319 771.402 605.989 779.686Z" stroke="#000000"/><text font-family="Arial" font-size="13" x="614" y="780.105">Forecast</text><text font-family="Arial" font-size="13" x="560.193" y="674.612">1</text><text font-family="Arial" font-size="13" x="602.8" y="868.895">1</text></g><g id="link_KPIInstance_NTimeseries"><path d="M626.27 652.859C645.58 675.589 663.81 702.309 674 730.609 687.25 767.409 685.23 781.149 674 818.609 667.23 841.179 652.47 863.299 639.66 879.519" id="KPIInstance-NTimeseries-2" stroke="#181818" fill="none"/><path d="M689.295 779.776 691.695 770.574 685.828 770.92 689.295 779.776Z" stroke="#000000"/><text font-family="Arial" font-size="13" x="698" y="780.105">Historic benchmark</text><text font-family="Arial" font-size="13" x="626.568" y="674.48">1</text><text font-family="Arial" font-size="13" x="637.33" y="868.599">1</text></g><g id="link_KPIInstance_NTimeseries"><path d="M650.21 609.549C710.41 631.389 782.67 669.039 819 730.609 838.87 764.299 840.54 785.959 819 818.609 797.99 850.459 762.58 870.619 727.21 883.369" id="KPIInstance-NTimeseries-3" stroke="#181818" fill="none"/><path d="M841.354 779.599 841.734 770.096 836.076 771.687 841.354 779.599Z" stroke="#000000"/><text font-family="Arial" font-size="13" x="849" y="780.105">Target</text><text font-family="Arial" font-size="13" x="657.997" y="625.761">1</text><text font-family="Arial" font-size="13" x="734.85" y="878.804">1</text></g><g id="link_KPIInstance_KPIInstance"><path d="M650.02 572.339C670.37 573.369 685 576.629 685 582.109 685 587.589 670.37 590.849 650.02 591.879" id="KPIInstance-KPIInstance" stroke="#181818" fill="none"/><path d="M690.253 587.279 692.731 578.097 686.86 578.394 690.253 587.279Z" stroke="#000000"/><text font-family="Arial" font-size="13" x="704" y="587.605">Contributors</text><text font-family="Arial" font-size="13" x="658.11" y="585.697">1</text><text font-family="Arial" font-size="13" x="658.03" y="606.794">*</text></g><g id="link_KPIInstance_KPIInstance"><path d="M650.25 563.029C713.86 559.009 780 565.369 780 582.109 780 598.849 713.86 605.209 650.25 601.189" id="KPIInstance-KPIInstance-1" stroke="#181818" fill="none"/><path d="M784.685 587.275 788.188 578.433 782.322 578.063 784.685 587.275Z" stroke="#000000"/><text font-family="Arial" font-size="13" x="799" y="587.605">Influencers</text><text font-family="Arial" font-size="13" x="658.04" y="558.455">1</text><text font-family="Arial" font-size="13" x="657.862" y="617.1">*</text></g><g id="link_KPIInstance_Parameter"><path d="M453.96 626.239C426.83 641.349 398.86 660.239 377 682.609 363.71 696.209 353.02 714.149 345.06 730.509" id="KPIInstance-Parameter" stroke="#181818" fill="none"/><path d="M378.388 695.243 386.954 691.11 382.889 686.865 378.388 695.243Z" stroke="#000000"/><text font-family="Arial" font-size="13" x="391" y="697.105">Contributors</text><text font-family="Arial" font-size="13" x="438.868" y="643.892">1</text><text font-family="Arial" font-size="13" x="342.38" y="719.694">*</text></g><g id="link_KPIInstance_Asset"><path d="M453.92 621.469C408.43 639.549 353.76 661.709 305 682.609 269.68 697.749 231.18 715.069 197.48 730.509" id="KPIInstance-Asset" stroke="#181818" fill="none"/><path d="M305.399 693.742 314.872 692.907 312.573 687.498 305.399 693.742Z" stroke="#000000"/><text font-family="Arial" font-size="13" x="319" y="697.105">KPI of</text><text font-family="Arial" font-size="13" x="440.905" y="621.467">*</text><text font-family="Arial" font-size="13" x="204.661" y="719.694">1</text></g><g id="link_Parameter_NTimeseries"><path d="M400.98 818.689C420.49 829.429 441.78 840.479 462 849.609 486.23 860.549 513.31 870.869 537.97 879.569" id="Parameter-NTimeseries" stroke="#181818" fill="none"/><text font-family="Arial" font-size="13" x="405.053" y="840.478">1</text><text font-family="Arial" font-size="13" x="510.853" y="868.662">1</text></g><g id="link_KPIDefinition_KPIInstance"><path d="M552 433.739C552 461.509 552 488.449 552 511.539" id="KPIDefinition-KPIInstance" stroke="#181818" fill="none"/><path d="M557 477.785 559.939 468.74 554.061 468.74 557 477.785Z" stroke="#000000"/><text font-family="Arial" font-size="13" x="566" y="478.104">Instances</text><text font-family="Arial" font-size="13" x="544.863" y="455.141">1</text><text font-family="Arial" font-size="13" x="546.742" y="500.936">*</text></g></g></svg>