<svg width="821" height="1028" viewBox="0 0 821 1028" preserveAspectRatio="none" xmlns="http://www.w3.org/2000/svg" xmlns:xlink="http://www.w3.org/1999/xlink" overflow="hidden"><defs></defs><g><rect x="282" y="5" width="243" height="27.6094" id="_title" fill="none"/><text font-family="Arial" font-weight="700" font-size="14" x="287" y="24.5332">Intelligent Advisor Domain Model</text><g id="elem_InsightCategory"><rect x="7" y="450.609" rx="2.5" ry="2.5" width="124" height="141.266" id="InsightCategory" stroke="#181818" stroke-width="0.5" fill="#F1F1F1"/><text font-family="Arial" font-size="14" x="17.5" y="470.143">Insight Category</text><line x1="8" y1="478.219" x2="130" y2="478.219" stroke="#181818" stroke-width="0.5"/><text font-family="Arial" font-size="14" x="13" y="496.752">id: string</text><text font-family="Arial" font-size="14" x="13" y="514.361">name: string</text><text font-family="Arial" font-size="14" x="13" y="531.971">description: string</text><text font-family="Arial" font-size="14" x="13" y="549.58">frequency: string</text><text font-family="Arial" font-size="14" x="13" y="567.189">template: string</text><text font-family="Arial" font-size="14" x="13" y="584.799">theme: string</text></g><g id="elem_Asset"><rect x="166" y="459.109" rx="2.5" ry="2.5" width="196" height="123.656" id="Asset" stroke="#181818" stroke-width="0.5" fill="#F1F1F1"/><text font-family="Arial" font-size="14" x="246.5" y="478.643">Asset</text><line x1="167" y1="486.719" x2="361" y2="486.719" stroke="#181818" stroke-width="0.5"/><text font-family="Arial" font-size="14" x="172" y="505.252">id: string</text><text font-family="Arial" font-size="14" x="172" y="522.861">name: string</text><text font-family="Arial" font-size="14" x="172" y="540.471">type: string</text><text font-family="Arial" font-size="14" x="172" y="558.08">roles: {string, string}[0..*]</text><text font-family="Arial" font-size="14" x="172" y="575.689">attributes: {string, string}[0..*]</text></g><g id="elem_Insight"><rect x="248" y="45.6094" rx="2.5" ry="2.5" width="196" height="264.531" id="Insight" stroke="#181818" stroke-width="0.5" fill="#F1F1F1"/><text font-family="Arial" font-size="14" x="325.5" y="65.1426">Insight</text><line x1="249" y1="73.2188" x2="443" y2="73.2188" stroke="#181818" stroke-width="0.5"/><text font-family="Arial" font-size="14" x="254" y="91.752">id: string</text><text font-family="Arial" font-size="14" x="254" y="109.361">title: string</text><text font-family="Arial" font-size="14" x="254" y="126.971">description: string</text><text font-family="Arial" font-size="14" x="254" y="144.58">starttime: Timestamp</text><text font-family="Arial" font-size="14" x="254" y="162.19">endtime: Timestamp</text><text font-family="Arial" font-size="14" x="254" y="179.799">assignedTo: string</text><text font-family="Arial" font-size="14" x="254" y="197.408">sequenceNumber: int</text><text font-family="Arial" font-size="14" x="254" y="215.018">status: enum</text><text font-family="Arial" font-size="14" x="254" y="232.627">topic: string</text><text font-family="Arial" font-size="14" x="254" y="250.236">department: string</text><text font-family="Arial" font-size="14" x="254" y="267.846">collaborators: string[0..*]</text><text font-family="Arial" font-size="14" x="254" y="285.455">roles: {string, string}[0..*]</text><text font-family="Arial" font-size="14" x="254" y="303.065">recommendations: string[0..*]</text></g><g id="elem_Action"><rect x="397" y="388.609" rx="2.5" ry="2.5" width="168" height="264.531" id="Action" stroke="#181818" stroke-width="0.5" fill="#F1F1F1"/><text font-family="Arial" font-size="14" x="461.5" y="408.143">Action</text><line x1="398" y1="416.219" x2="564" y2="416.219" stroke="#181818" stroke-width="0.5"/><text font-family="Arial" font-size="14" x="403" y="434.752">id: string</text><text font-family="Arial" font-size="14" x="403" y="452.361">title: string</text><text font-family="Arial" font-size="14" x="403" y="469.971">description: string</text><text font-family="Arial" font-size="14" x="403" y="487.58">createdTime: Timestamp</text><text font-family="Arial" font-size="14" x="403" y="505.19">createdBy: string</text><text font-family="Arial" font-size="14" x="403" y="522.799">assignedTo: string</text><text font-family="Arial" font-size="14" x="403" y="540.408">sequenceNumber: int</text><text font-family="Arial" font-size="14" x="403" y="558.018">status: enum</text><text font-family="Arial" font-size="14" x="403" y="575.627">topic: string</text><text font-family="Arial" font-size="14" x="403" y="593.236">department: string</text><text font-family="Arial" font-size="14" x="403" y="610.846">collaborators: string[0..*]</text><text font-family="Arial" font-size="14" x="403" y="628.455">roles: {string, string}[0..*]</text><text font-family="Arial" font-size="14" x="403" y="646.064">workOrder: WorkOrder</text></g><g id="elem_InsightHistory"><rect x="600" y="494.609" rx="2.5" ry="2.5" width="214" height="53.2188" id="InsightHistory" stroke="#181818" stroke-width="0.5" fill="#F1F1F1"/><text font-family="Arial" font-size="14" x="663" y="514.143">Insight History</text><line x1="601" y1="522.219" x2="813" y2="522.219" stroke="#181818" stroke-width="0.5"/><text font-family="Arial" font-size="14" x="606" y="540.752">itemsList: InsightHistoryItem[0..*]</text></g><g id="elem_InsightHistoryItem"><rect x="634.5" y="731.609" rx="2.5" ry="2.5" width="145" height="106.047" id="InsightHistoryItem" stroke="#181818" stroke-width="0.5" fill="#F1F1F1"/><text font-family="Arial" font-size="14" x="648" y="751.143">Insight History Item</text><line x1="635.5" y1="759.219" x2="778.5" y2="759.219" stroke="#181818" stroke-width="0.5"/><text font-family="Arial" font-size="14" x="640.5" y="777.752">username: string</text><text font-family="Arial" font-size="14" x="640.5" y="795.361">time: Timestamp</text><text font-family="Arial" font-size="14" x="640.5" y="812.971">propertyName: string</text><text font-family="Arial" font-size="14" x="640.5" y="830.58">previousValue: string</text></g><g id="elem_ActionHistory"><rect x="195" y="758.109" rx="2.5" ry="2.5" width="212" height="53.2188" id="ActionHistory" stroke="#181818" stroke-width="0.5" fill="#F1F1F1"/><text font-family="Arial" font-size="14" x="258" y="777.643">Action History</text><line x1="196" y1="785.719" x2="406" y2="785.719" stroke="#181818" stroke-width="0.5"/><text font-family="Arial" font-size="14" x="201" y="804.252">itemsList: ActionHistoryItem[0..*]</text></g><g id="elem_ActionHistoryItem"><rect x="228.5" y="915.609" rx="2.5" ry="2.5" width="145" height="106.047" id="ActionHistoryItem" stroke="#181818" stroke-width="0.5" fill="#F1F1F1"/><text font-family="Arial" font-size="14" x="243" y="935.143">Action History Item</text><line x1="229.5" y1="943.219" x2="372.5" y2="943.219" stroke="#181818" stroke-width="0.5"/><text font-family="Arial" font-size="14" x="234.5" y="961.752">username: string</text><text font-family="Arial" font-size="14" x="234.5" y="979.361">time: Timestamp</text><text font-family="Arial" font-size="14" x="234.5" y="996.971">propertyName: string</text><text font-family="Arial" font-size="14" x="234.5" y="1014.58">previousValue: string</text></g><g id="elem_WorkOrder"><rect x="442" y="731.609" rx="2.5" ry="2.5" width="130" height="106.047" id="WorkOrder" stroke="#181818" stroke-width="0.5" fill="#F1F1F1"/><text font-family="Arial" font-size="14" x="470" y="751.143">Work Order</text><line x1="443" y1="759.219" x2="571" y2="759.219" stroke="#181818" stroke-width="0.5"/><text font-family="Arial" font-size="14" x="448" y="777.752">id: string</text><text font-family="Arial" font-size="14" x="448" y="795.361">orderType: string</text><text font-family="Arial" font-size="14" x="448" y="812.971">controlKey: string</text><text font-family="Arial" font-size="14" x="448" y="830.58">activityType: string</text></g><g id="link_Insight_Asset"><path d="M314.3 310.949C302.04 361.929 288.61 417.769 278.71 458.919" id="Insight-Asset" stroke="#181818" fill="none"/><path d="M308.831 354.647 313.803 346.539 308.089 345.165 308.831 354.647Z" stroke="#000000"/><text font-family="Arial" font-size="13" x="319" y="355.104">Insight for</text><text font-family="Arial" font-size="13" x="307.537" y="331.728">*</text><text font-family="Arial" font-size="13" x="273.006" y="448.339">1</text></g><g id="link_Insight_Action"><path d="M398.19 310.949C408.25 336.339 418.78 362.949 428.83 388.339" id="Insight-Action" stroke="#181818" fill="none"/><path d="M417.159 345.136 417.757 354.628 423.222 352.464 417.159 345.136Z" stroke="#000000"/><text font-family="Arial" font-size="13" x="428" y="355.104">Action of</text><text font-family="Arial" font-size="13" x="393.701" y="331.728">1</text><text font-family="Arial" font-size="13" x="420.669" y="377.72">*</text></g><g id="link_Insight_InsightHistory"><path d="M444.42 263.169C487.42 300.739 537.98 346.059 582 388.609 618.69 424.069 659 467.309 683.66 494.279" id="Insight-InsightHistory" stroke="#181818" fill="none"/><path d="M553.596 353.259 549.133 344.861 545.049 349.088 553.596 353.259Z" stroke="#000000"/><text font-family="Arial" font-size="13" x="559" y="355.104">History of</text><text font-family="Arial" font-size="13" x="451.905" y="266.354">1</text><text font-family="Arial" font-size="13" x="670.453" y="483.735">1</text></g><g id="link_Action_ActionHistory"><path d="M396.53 644.819C367.3 687.279 337.29 730.879 318.9 757.609" id="Action-ActionHistory" stroke="#181818" fill="none"/><path d="M372.165 696.904 379.714 691.119 374.872 687.787 372.165 696.904Z" stroke="#000000"/><text font-family="Arial" font-size="13" x="384" y="698.105">History of</text><text font-family="Arial" font-size="13" x="381.97" y="652.294">1</text><text font-family="Arial" font-size="13" x="315.05" y="747.463">1</text></g><g id="link_Action_WorkOrder"><path d="M494.11 654.009C496.84 681.429 499.56 708.779 501.79 731.239" id="Action-WorkOrder" stroke="#181818" fill="none"/><path d="M504.495 697.761 506.524 688.469 500.675 689.051 504.495 697.761Z" stroke="#000000"/><text font-family="Arial" font-size="13" x="513" y="698.105">Work Order of</text><text font-family="Arial" font-size="13" x="487.606" y="674.791">1</text><text font-family="Arial" font-size="13" x="493.674" y="720.891">1</text></g><g id="link_InsightHistory_InsightHistoryItem"><path d="M707 547.659C707 590.009 707 675.569 707 731.189" id="InsightHistory-InsightHistoryItem" stroke="#181818" fill="none"/><path d="M712 697.785 714.939 688.74 709.061 688.74 712 697.785Z" stroke="#000000"/><text font-family="Arial" font-size="13" x="721" y="698.105">Items of</text><text font-family="Arial" font-size="13" x="699.191" y="569.159">1</text><text font-family="Arial" font-size="13" x="701.68" y="720.835">*</text></g><g id="link_ActionHistory_ActionHistoryItem"><path d="M301 811.299C301 838.249 301 881.339 301 915.459" id="ActionHistory-ActionHistoryItem" stroke="#181818" fill="none"/><path d="M306 881.785 308.939 872.74 303.061 872.74 306 881.785Z" stroke="#000000"/><text font-family="Arial" font-size="13" x="315" y="882.105">Items of</text><text font-family="Arial" font-size="13" x="293.191" y="832.832">1</text><text font-family="Arial" font-size="13" x="295.664" y="904.758">*</text></g><g id="link_Insight_InsightCategory"><path d="M247.72 274.309C214.34 308.869 177.95 349.139 148 388.609 133.43 407.809 119.29 429.869 107.09 450.369" id="Insight-InsightCategory" stroke="#181818" fill="none"/><path d="M191.12 345.879 183.179 351.112 187.772 354.78 191.12 345.879Z" stroke="#000000"/><text font-family="Arial" font-size="13" x="197" y="355.104">Category of</text><text font-family="Arial" font-size="13" x="235.004" y="278.589">*</text><text font-family="Arial" font-size="13" x="103.657" y="439.749">1</text></g></g></svg>