<svg width="893" height="473" viewBox="0 0 893 473" preserveAspectRatio="none" xmlns="http://www.w3.org/2000/svg" xmlns:xlink="http://www.w3.org/1999/xlink" overflow="hidden"><defs></defs><g><rect x="286" y="5" width="307" height="27.6094" id="_title" fill="none"/><text font-family="Arial" font-weight="700" font-size="14" x="291" y="24.5332">AOT Smart KPIs Operational Domain Model</text><g id="elem_Asset"><rect x="7" y="264.609" rx="2.5" ry="2.5" width="196" height="88.4375" id="Asset" stroke="#181818" stroke-width="0.5" fill="#F1F1F1"/><text font-family="Arial" font-size="14" x="87.5" y="284.143">Asset</text><line x1="8" y1="292.219" x2="202" y2="292.219" stroke="#181818" stroke-width="0.5"/><text font-family="Arial" font-size="14" x="13" y="310.752">id: string</text><text font-family="Arial" font-size="14" x="13" y="328.361">roles: {string, string}[0..*]</text><text font-family="Arial" font-size="14" x="13" y="345.971">attributes: {string, string}[0..*]</text></g><g id="elem_KPIInstance"><rect x="454" y="45.6094" rx="2.5" ry="2.5" width="196" height="141.266" id="KPIInstance" stroke="#181818" stroke-width="0.5" fill="#F1F1F1"/><text font-family="Arial" font-size="14" x="513" y="65.1426">KPI Instance</text><line x1="455" y1="73.2188" x2="649" y2="73.2188" stroke="#181818" stroke-width="0.5"/><text font-family="Arial" font-size="14" x="460" y="91.752">id: string</text><text font-family="Arial" font-size="14" x="460" y="109.361">name: string</text><text font-family="Arial" font-size="14" x="460" y="126.971">description: string</text><text font-family="Arial" font-size="14" x="460" y="144.58">isActive: bool</text><text font-family="Arial" font-size="14" x="460" y="162.19">roles: {string, string}[0..*]</text><text font-family="Arial" font-size="14" x="460" y="179.799">attributes: {string, string}[0..*]</text></g><g id="elem_Parameter"><rect x="238" y="264.609" rx="2.5" ry="2.5" width="180" height="88.4375" id="Parameter" stroke="#181818" stroke-width="0.5" fill="#F1F1F1"/><text font-family="Arial" font-size="14" x="295" y="284.143">Parameter</text><line x1="239" y1="292.219" x2="417" y2="292.219" stroke="#181818" stroke-width="0.5"/><text font-family="Arial" font-size="14" x="244" y="310.752">name: string</text><text font-family="Arial" font-size="14" x="244" y="328.361">description: string</text><text font-family="Arial" font-size="14" x="244" y="345.971">unitOfMEasurement: string</text></g><g id="elem_NTimeseries"><rect x="507" y="413.609" rx="2.5" ry="2.5" width="220" height="53.2188" id="NTimeseries" stroke="#181818" stroke-width="0.5" fill="#F1F1F1"/><text font-family="Arial" font-size="14" x="555" y="433.143">Numeric Timeseries</text><line x1="508" y1="441.219" x2="726" y2="441.219" stroke="#181818" stroke-width="0.5"/><text font-family="Arial" font-size="14" x="513" y="459.752">values: {Timestamp, double}[0..*]</text></g><g id="link_KPIInstance_NTimeseries"><path d="M520.82 186.749C503.86 235.229 490.78 300.309 515 352.609 526.81 378.099 550.24 398.819 571.67 413.579" id="KPIInstance-NTimeseries" stroke="#181818" fill="none"/><path d="M521.094 313.664 521.983 304.195 516.247 305.481 521.094 313.664Z" stroke="#000000"/><text font-family="Arial" font-size="13" x="529" y="314.104">Actuals</text><text font-family="Arial" font-size="13" x="510.244" y="208.359">1</text><text font-family="Arial" font-size="13" x="552.768" y="402.674">1</text></g><g id="link_KPIInstance_NTimeseries"><path d="M566.1 186.979C580.48 258.189 602.01 364.869 611.81 413.409" id="KPIInstance-NTimeseries-1" stroke="#181818" fill="none"/><path d="M605.989 313.686 607.08 304.238 601.319 305.402 605.989 313.686Z" stroke="#000000"/><text font-family="Arial" font-size="13" x="614" y="314.104">Forecast</text><text font-family="Arial" font-size="13" x="560.193" y="208.612">1</text><text font-family="Arial" font-size="13" x="602.8" y="402.896">1</text></g><g id="link_KPIInstance_NTimeseries"><path d="M626.27 186.859C645.58 209.589 663.81 236.309 674 264.609 687.25 301.409 685.23 315.149 674 352.609 667.23 375.179 652.47 397.299 639.66 413.519" id="KPIInstance-NTimeseries-2" stroke="#181818" fill="none"/><path d="M689.295 313.776 691.695 304.574 685.828 304.92 689.295 313.776Z" stroke="#000000"/><text font-family="Arial" font-size="13" x="698" y="314.104">Historic benchmark</text><text font-family="Arial" font-size="13" x="626.568" y="208.48">1</text><text font-family="Arial" font-size="13" x="637.33" y="402.599">1</text></g><g id="link_KPIInstance_NTimeseries"><path d="M650.21 143.549C710.41 165.389 782.67 203.039 819 264.609 838.87 298.299 840.54 319.959 819 352.609 797.99 384.459 762.58 404.619 727.21 417.369" id="KPIInstance-NTimeseries-3" stroke="#181818" fill="none"/><path d="M841.354 313.599 841.734 304.095 836.076 305.687 841.354 313.599Z" stroke="#000000"/><text font-family="Arial" font-size="13" x="849" y="314.104">Target</text><text font-family="Arial" font-size="13" x="657.997" y="159.761">1</text><text font-family="Arial" font-size="13" x="734.85" y="412.804">1</text></g><g id="link_KPIInstance_KPIInstance"><path d="M650.02 106.339C670.37 107.369 685 110.629 685 116.109 685 121.589 670.37 124.849 650.02 125.879" id="KPIInstance-KPIInstance" stroke="#181818" fill="none"/><path d="M690.253 121.279 692.731 112.097 686.86 112.394 690.253 121.279Z" stroke="#000000"/><text font-family="Arial" font-size="13" x="704" y="121.605">Contributors</text><text font-family="Arial" font-size="13" x="658.11" y="119.697">1</text><text font-family="Arial" font-size="13" x="658.03" y="140.794">*</text></g><g id="link_KPIInstance_KPIInstance"><path d="M650.25 97.0294C713.86 93.0094 780 99.3694 780 116.109 780 132.849 713.86 139.209 650.25 135.189" id="KPIInstance-KPIInstance-1" stroke="#181818" fill="none"/><path d="M784.685 121.275 788.188 112.434 782.322 112.063 784.685 121.275Z" stroke="#000000"/><text font-family="Arial" font-size="13" x="799" y="121.605">Influencers</text><text font-family="Arial" font-size="13" x="658.04" y="92.4545">1</text><text font-family="Arial" font-size="13" x="657.862" y="151.1">*</text></g><g id="link_KPIInstance_Parameter"><path d="M453.96 160.239C426.83 175.349 398.86 194.239 377 216.609 363.71 230.209 353.02 248.149 345.06 264.509" id="KPIInstance-Parameter" stroke="#181818" fill="none"/><path d="M378.388 229.243 386.954 225.11 382.889 220.865 378.388 229.243Z" stroke="#000000"/><text font-family="Arial" font-size="13" x="391" y="231.105">Contributors</text><text font-family="Arial" font-size="13" x="438.868" y="177.892">1</text><text font-family="Arial" font-size="13" x="342.38" y="253.694">*</text></g><g id="link_KPIInstance_Asset"><path d="M453.92 155.469C408.43 173.549 353.76 195.709 305 216.609 269.68 231.749 231.18 249.069 197.48 264.509" id="KPIInstance-Asset" stroke="#181818" fill="none"/><path d="M305.399 227.742 314.872 226.907 312.573 221.498 305.399 227.742Z" stroke="#000000"/><text font-family="Arial" font-size="13" x="319" y="231.105">KPI of</text><text font-family="Arial" font-size="13" x="440.905" y="155.467">*</text><text font-family="Arial" font-size="13" x="204.661" y="253.694">1</text></g><g id="link_Parameter_NTimeseries"><path d="M400.98 352.689C420.49 363.429 441.78 374.479 462 383.609 486.23 394.549 513.31 404.869 537.97 413.569" id="Parameter-NTimeseries" stroke="#181818" fill="none"/><text font-family="Arial" font-size="13" x="405.053" y="374.478">1</text><text font-family="Arial" font-size="13" x="510.853" y="402.662">1</text></g></g></svg>