<svg width="698" height="1922" viewBox="0 0 698 1922" preserveAspectRatio="none" xmlns="http://www.w3.org/2000/svg" xmlns:xlink="http://www.w3.org/1999/xlink" overflow="hidden"><defs></defs><g><text font-family="Arial" font-weight="700" font-size="14" x="161" y="24.5332">AOT Production and Batch Tracebility Domain Model</text><g id="elem_Asset"><rect x="9.9996" y="1791.61" rx="2.5" ry="2.5" width="196" height="123.656" id="Asset" stroke="#181818" stroke-width="0.5" fill="#F1F1F1"/><text font-family="Arial" font-size="14" x="90.4996" y="1811.14">Asset</text><line x1="10.9996" y1="1819.22" x2="205" y2="1819.22" stroke="#181818" stroke-width="0.5"/><text font-family="Arial" font-size="14" x="15.9996" y="1837.75">id: string</text><text font-family="Arial" font-size="14" x="15.9996" y="1855.36">name: string</text><text font-family="Arial" font-size="14" x="15.9996" y="1872.97">type: string</text><text font-family="Arial" font-size="14" x="15.9996" y="1890.58">roles: {string, string}[0..*]</text><text font-family="Arial" font-size="14" x="15.9996" y="1908.19">attributes: {string, string}[0..*]</text></g><g id="elem_AssetDefinition"><rect x="161" y="1554.61" rx="2.5" ry="2.5" width="196" height="158.875" id="AssetDefinition" stroke="#181818" stroke-width="0.5" fill="#F1F1F1"/><text font-family="Arial" font-size="14" x="210" y="1574.14">Asset Definition</text><line x1="162" y1="1582.22" x2="356" y2="1582.22" stroke="#181818" stroke-width="0.5"/><text font-family="Arial" font-size="14" x="167" y="1600.75">id: string</text><text font-family="Arial" font-size="14" x="167" y="1618.36">name: string</text><text font-family="Arial" font-size="14" x="167" y="1635.97">type: string</text><text font-family="Arial" font-size="14" x="167" y="1653.58">category: string</text><text font-family="Arial" font-size="14" x="167" y="1671.19">manufacturer: string</text><text font-family="Arial" font-size="14" x="167" y="1688.8">roles: {string, string}[0..*]</text><text font-family="Arial" font-size="14" x="167" y="1706.41">attributes: {string, string}[0..*]</text></g><g id="elem_Material"><rect x="185" y="773.609" rx="2.5" ry="2.5" width="196" height="158.875" id="Material" stroke="#181818" stroke-width="0.5" fill="#F1F1F1"/><text font-family="Arial" font-size="14" x="258" y="793.143">Material</text><line x1="186" y1="801.219" x2="380" y2="801.219" stroke="#181818" stroke-width="0.5"/><text font-family="Arial" font-size="14" x="191" y="819.752">id: string</text><text font-family="Arial" font-size="14" x="191" y="837.361">name: string</text><text font-family="Arial" font-size="14" x="191" y="854.971">category: string</text><text font-family="Arial" font-size="14" x="191" y="872.58">description: string</text><text font-family="Arial" font-size="14" x="191" y="890.189">isActive: bool</text><text font-family="Arial" font-size="14" x="191" y="907.799">roles: {string, string}[0..*]</text><text font-family="Arial" font-size="14" x="191" y="925.408">attributes: {string, string}[0..*]</text></g><g id="elem_Batch"><rect x="90.9996" y="1010.61" rx="2.5" ry="2.5" width="196" height="211.703" id="Batch" stroke="#181818" stroke-width="0.5" fill="#F1F1F1"/><text font-family="Arial" font-size="14" x="171" y="1030.14">Batch</text><line x1="91.9996" y1="1038.22" x2="286" y2="1038.22" stroke="#181818" stroke-width="0.5"/><text font-family="Arial" font-size="14" x="96.9996" y="1056.75">id: string</text><text font-family="Arial" font-size="14" x="96.9996" y="1074.36">name: string</text><text font-family="Arial" font-size="14" x="96.9996" y="1091.97">description: string</text><text font-family="Arial" font-size="14" x="96.9996" y="1109.58">quantity: float</text><text font-family="Arial" font-size="14" x="96.9996" y="1127.19">status: string</text><text font-family="Arial" font-size="14" x="96.9996" y="1144.8">isActive: bool</text><text font-family="Arial" font-size="14" x="96.9996" y="1162.41">starttime: Timestamp</text><text font-family="Arial" font-size="14" x="96.9996" y="1180.02">endtime: Timestamp</text><text font-family="Arial" font-size="14" x="96.9996" y="1197.63">roles: {string, string}[0..*]</text><text font-family="Arial" font-size="14" x="96.9996" y="1215.24">attributes: {string, string}[0..*]</text></g><g id="elem_ProductionOrder"><rect x="17.4996" y="45.6094" rx="2.5" ry="2.5" width="215" height="282.141" id="ProductionOrder" stroke="#181818" stroke-width="0.5" fill="#F1F1F1"/><text font-family="Arial" font-size="14" x="70.4996" y="65.1426">Production Order</text><line x1="18.4996" y1="73.2188" x2="231.5" y2="73.2188" stroke="#181818" stroke-width="0.5"/><text font-family="Arial" font-size="14" x="23.4996" y="91.752">id: string</text><text font-family="Arial" font-size="14" x="23.4996" y="109.361">name: string</text><text font-family="Arial" font-size="14" x="23.4996" y="126.971">description: string</text><text font-family="Arial" font-size="14" x="23.4996" y="144.58">type: enum</text><text font-family="Arial" font-size="14" x="23.4996" y="162.19">status: enum</text><text font-family="Arial" font-size="14" x="23.4996" y="179.799">orderQuantity: float</text><text font-family="Arial" font-size="14" x="23.4996" y="197.408">orderUoM: string</text><text font-family="Arial" font-size="14" x="23.4996" y="215.018">scheduledStartTime: Timestamp</text><text font-family="Arial" font-size="14" x="23.4996" y="232.627">scheduledEndTime: Timestamp</text><text font-family="Arial" font-size="14" x="23.4996" y="250.236">actualStartTime: Timestamp</text><text font-family="Arial" font-size="14" x="23.4996" y="267.846">Role: string</text><text font-family="Arial" font-size="14" x="23.4996" y="285.455">Department: string</text><text font-family="Arial" font-size="14" x="23.4996" y="303.065">plannedBatchSize: string</text><text font-family="Arial" font-size="14" x="23.4996" y="320.674">attributes: {string, string}[0..*]</text></g><g id="elem_Recipe"><rect x="245" y="405.609" rx="2.5" ry="2.5" width="196" height="106.047" id="Recipe" stroke="#181818" stroke-width="0.5" fill="#F1F1F1"/><text font-family="Arial" font-size="14" x="321" y="425.143">Recipe</text><line x1="246" y1="433.219" x2="440" y2="433.219" stroke="#181818" stroke-width="0.5"/><text font-family="Arial" font-size="14" x="251" y="451.752">id: string</text><text font-family="Arial" font-size="14" x="251" y="469.361">name: string</text><text font-family="Arial" font-size="14" x="251" y="486.971">description: string</text><text font-family="Arial" font-size="14" x="251" y="504.58">attributes: {string, string}[0..*]</text></g><g id="elem_BOM"><rect x="334" y="589.609" rx="2.5" ry="2.5" width="196" height="106.047" id="BOM" stroke="#181818" stroke-width="0.5" fill="#F1F1F1"/><text font-family="Arial" font-size="14" x="416.5" y="609.143">BOM</text><line x1="335" y1="617.219" x2="529" y2="617.219" stroke="#181818" stroke-width="0.5"/><text font-family="Arial" font-size="14" x="340" y="635.752">id: string</text><text font-family="Arial" font-size="14" x="340" y="653.361">name: string</text><text font-family="Arial" font-size="14" x="340" y="670.971">description: string</text><text font-family="Arial" font-size="14" x="340" y="688.58">attributes: {string, string}[0..*]</text></g><g id="elem_ProcessDefinition"><rect x="161" y="1300.61" rx="2.5" ry="2.5" width="196" height="176.484" id="ProcessDefinition" stroke="#181818" stroke-width="0.5" fill="#F1F1F1"/><text font-family="Arial" font-size="14" x="202" y="1320.14">Process Definition</text><line x1="162" y1="1328.22" x2="356" y2="1328.22" stroke="#181818" stroke-width="0.5"/><text font-family="Arial" font-size="14" x="167" y="1346.75">id: string</text><text font-family="Arial" font-size="14" x="167" y="1364.36">name: string</text><text font-family="Arial" font-size="14" x="167" y="1381.97">version: string</text><text font-family="Arial" font-size="14" x="167" y="1399.58">type: string</text><text font-family="Arial" font-size="14" x="167" y="1417.19">description: string</text><text font-family="Arial" font-size="14" x="167" y="1434.8">isActive: bool</text><text font-family="Arial" font-size="14" x="167" y="1452.41">roles: {string, string}[0..*]</text><text font-family="Arial" font-size="14" x="167" y="1470.02">attributes: {string, string}[0..*]</text></g><g id="link_Asset_Asset"><path d="M206.02 1835.52C226.37 1837.42 241 1843.45 241 1853.61 241 1863.77 226.37 1869.8 206.02 1871.7" id="Asset-Asset" stroke="#181818" fill="none"/><path d="M246.464 1858.76 248.55 1849.48 242.697 1850.03 246.464 1858.76Z" stroke="#000000"/><text font-family="Arial" font-size="13" x="260" y="1859.1">Hierarchy</text><text font-family="Arial" font-size="13" x="214.109" y="1830.96">1</text><text font-family="Arial" font-size="13" x="214.03" y="1870.03">*</text></g><g id="link_AssetDefinition_Asset"><path d="M204.49 1713.63C186.66 1739.31 167.14 1767.42 150.35 1791.61" id="AssetDefinition-Asset" stroke="#181818" fill="none"/><path d="M185.148 1756.89 192.721 1751.14 187.892 1747.79 185.148 1756.89Z" stroke="#000000"/><text font-family="Arial" font-size="13" x="197" y="1758.1">Instances</text><text font-family="Arial" font-size="13" x="192.323" y="1734.94">1</text><text font-family="Arial" font-size="13" x="150.206" y="1780.62">*</text></g><g id="link_Material_Material"><path d="M381.02 831.759C401.37 834.009 416 841.129 416 853.109 416 865.089 401.37 872.209 381.02 874.459" id="Material-Material" stroke="#181818" fill="none"/><path d="M421.549 858.255 423.476 848.942 417.634 849.588 421.549 858.255Z" stroke="#000000"/><text font-family="Arial" font-size="13" x="435" y="858.605">Product Hierarchy</text><text font-family="Arial" font-size="13" x="389.11" y="826.935">1</text><text font-family="Arial" font-size="13" x="389.03" y="873.037">*</text></g><g id="link_Batch_Batch"><path d="M287.02 1090.56C307.37 1093.3 322 1101.99 322 1116.61 322 1131.23 307.37 1139.92 287.02 1142.66" id="Batch-Batch" stroke="#181818" fill="none"/><path d="M327.667 1121.74 329.372 1112.38 323.547 1113.17 327.667 1121.74Z" stroke="#000000"/><text font-family="Arial" font-size="13" x="341" y="1122.1">Used in</text><text font-family="Arial" font-size="13" x="295.03" y="1085.37">*</text><text font-family="Arial" font-size="13" x="295.03" y="1141.62">*</text></g><g id="link_Material_Batch"><path d="M254.67 932.919C245.91 957.289 236.12 984.519 226.83 1010.37" id="Material-Batch" stroke="#181818" fill="none"/><path d="M247.691 967.08 241.866 974.598 247.397 976.586 247.691 967.08Z" stroke="#000000"/><text font-family="Arial" font-size="13" x="255" y="977.105">Produces</text><text font-family="Arial" font-size="13" x="244.934" y="953.981">1</text><text font-family="Arial" font-size="13" x="224.314" y="999.855">*</text></g><g id="link_ProductionOrder_Recipe"><path d="M232.72 321.029C256.97 351.049 281.29 381.179 300.91 405.479" id="ProductionOrder-Recipe" stroke="#181818" fill="none"/><path d="M280.141 370.675 276.745 361.792 272.172 365.484 280.141 370.675Z" stroke="#000000"/><text font-family="Arial" font-size="13" x="286" y="372.104">Has</text><text font-family="Arial" font-size="13" x="240.469" y="327.421">*</text><text font-family="Arial" font-size="13" x="287.783" y="394.781">1</text></g><g id="link_ProductionOrder_Batch"><path d="M125 327.749C125 369.529 125 415.419 125 457.609 125 457.609 125 457.609 125 854.109 125 906.569 137.3 963.309 151.12 1010.48" id="ProductionOrder-Batch" stroke="#181818" fill="none"/><path d="M129.808 637.789 127.217 646.94 133.091 646.715 129.808 637.789Z" stroke="#000000"/><text font-family="Arial" font-size="13" x="139" y="648.105">Based on</text><text font-family="Arial" font-size="13" x="117.808" y="349.406">1</text><text font-family="Arial" font-size="13" x="143.154" y="999.617">*</text></g><g id="link_ProductionOrder_Asset"><path d="M43.5996 327.959C26.7496 368.469 13.9996 413.639 13.9996 457.609 13.9996 457.609 13.9996 457.609 13.9996 1635.11 13.9996 1691.26 40.7196 1749.37 65.6696 1791.38" id="ProductionOrder-Asset" stroke="#181818" fill="none"/><path d="M19.075 976.785 21.8772 967.696 16 967.785 19.075 976.785Z" stroke="#000000"/><text font-family="Arial" font-size="13" x="27.9996" y="977.105">Produced on</text><text font-family="Arial" font-size="13" x="34.2735" y="349.161">*</text><text font-family="Arial" font-size="13" x="55.4861" y="1780.79">*</text></g><g id="link_Recipe_BOM"><path d="M368.5 511.759C380.42 536.129 394.58 565.079 406.49 589.449" id="Recipe-BOM" stroke="#181818" fill="none"/><path d="M397.196 555.277 395.863 545.86 390.582 548.442 397.196 555.277Z" stroke="#000000"/><text font-family="Arial" font-size="13" x="404" y="556.105">Has</text><text font-family="Arial" font-size="13" x="366.447" y="533.109">*</text><text font-family="Arial" font-size="13" x="395.591" y="578.747">1</text></g><g id="link_Recipe_ProcessDefinition"><path d="M441.3 485.149C515.29 510.989 604 559.159 604 641.609 604 641.609 604 641.609 604 1117.61 604 1243.68 459.37 1319.68 357.4 1357.6" id="Recipe-ProcessDefinition" stroke="#181818" fill="none"/><path d="M608.521 858.262 612.312 849.54 606.461 848.977 608.521 858.262Z" stroke="#000000"/><text font-family="Arial" font-size="13" x="618" y="858.605">Executed on</text><text font-family="Arial" font-size="13" x="449.017" y="484.076">*</text><text font-family="Arial" font-size="13" x="365.125" y="1352.1">*</text></g><g id="link_Recipe_Material"><path d="M312.6 511.859C300.88 534.889 288.89 562.779 283 589.609 269.68 650.259 270.54 720.709 274.26 773.339" id="Recipe-Material" stroke="#181818" fill="none"/><path d="M287.274 647.732 291.494 639.209 285.679 638.357 287.274 647.732Z" stroke="#000000"/><text font-family="Arial" font-size="13" x="297" y="648.105">For</text><text font-family="Arial" font-size="13" x="303.384" y="533.222">*</text><text font-family="Arial" font-size="13" x="266.131" y="762.765">1</text></g><g id="link_BOM_Material"><path d="M347.36 695.809C337.12 704.789 327.61 714.759 320 725.609 310.01 739.849 302.7 756.779 297.34 773.549" id="BOM-Material" stroke="#181818" fill="none"/><path d="M322.294 738.99 329.66 732.974 324.717 729.793 322.294 738.99Z" stroke="#000000"/><text font-family="Arial" font-size="13" x="334" y="740.105">Resulting Product</text><text font-family="Arial" font-size="13" x="331.195" y="717.165">*</text><text font-family="Arial" font-size="13" x="291.373" y="762.722">1</text></g><g id="link_BOM_Material"><path d="M448.15 695.639C450.35 711.769 449.66 729.109 442 743.609 428.34 769.469 405.44 790.319 381.22 806.579" id="BOM-Material-1" stroke="#181818" fill="none"/><path d="M449.417 739.066 456.606 732.84 451.573 729.803 449.417 739.066Z" stroke="#000000"/><text font-family="Arial" font-size="13" x="461" y="740.105">Input Materials</text><text font-family="Arial" font-size="13" x="444.899" y="716.973">*</text><text font-family="Arial" font-size="13" x="388.931" y="799.918">*</text></g><g id="link_ProcessDefinition_ProcessDefinition"><path d="M357.02 1365.82C377.37 1368.21 392 1375.81 392 1388.61 392 1401.41 377.37 1409.01 357.02 1411.4" id="ProcessDefinition-ProcessDefinition" stroke="#181818" fill="none"/><path d="M397.583 1393.75 399.447 1384.42 393.609 1385.11 397.583 1393.75Z" stroke="#000000"/><text font-family="Arial" font-size="13" x="411" y="1394.1">Steps/Operations</text><text font-family="Arial" font-size="13" x="365.11" y="1378.13">1</text><text font-family="Arial" font-size="13" x="365.03" y="1410.07">*</text></g><g id="link_ProcessDefinition_AssetDefinition"><path d="M259 1476.83C259 1502.21 259 1529.78 259 1554.59" id="ProcessDefinition-AssetDefinition" stroke="#181818" fill="none"/><path d="M264 1520.79 266.939 1511.74 261.061 1511.74 264 1520.79Z" stroke="#000000"/><text font-family="Arial" font-size="13" x="273" y="1521.1">Execute on</text><text font-family="Arial" font-size="13" x="253.785" y="1498.59">*</text><text font-family="Arial" font-size="13" x="253.761" y="1543.77">*</text></g><g id="link_Batch_Asset"><path d="M159.75 1222.93C153.66 1248.2 147.92 1275.23 144 1300.61 116.72 1477.39 110.08 1689.12 108.49 1791.38" id="Batch-Asset" stroke="#181818" fill="none"/><path d="M124.55 1520.77 128.29 1512.02 122.436 1511.49 124.55 1520.77Z" stroke="#000000"/><text font-family="Arial" font-size="13" x="134" y="1521.1">Produced by</text><text font-family="Arial" font-size="13" x="152.716" y="1243.77">*</text><text font-family="Arial" font-size="13" x="103.257" y="1780.79">*</text></g><g id="link_Batch_ProcessDefinition"><path d="M216.26 1222.77C222.91 1248.39 229.94 1275.51 236.34 1300.2" id="Batch-ProcessDefinition" stroke="#181818" fill="none"/><path d="M234.255 1266.63 234.829 1257.13 229.139 1258.61 234.255 1266.63Z" stroke="#000000"/><text font-family="Arial" font-size="13" x="242" y="1267.1">Produced based on</text><text font-family="Arial" font-size="13" x="212.923" y="1243.96">*</text><text font-family="Arial" font-size="13" x="227.173" y="1289.7">1</text></g></g></svg>