<svg width="1469.17" height="913.333" viewBox="0 0 1101.88 685" xmlns="http://www.w3.org/2000/svg" xmlns:xlink="http://www.w3.org/1999/xlink" color-interpolation-filters="sRGB" stroke-linecap="square" stroke-miterlimit="3" fill="none" fill-rule="evenodd" font-size="12" xml:space="preserve" overflow="visible"><defs id="Patterns_And_Gradients"><linearGradient x1="0" y1="0" x2="1" y2="0" id="grad0-11" gradientTransform="matrix(6.12323e-17 1 -1 6.12323e-17 1 0)"><stop offset="0.01" stop-color="#FFFFFF"/><stop offset="0.5" stop-color="#FEFEFE"/><stop offset="1" stop-color="#FFFFFF"/></linearGradient><linearGradient x1="0" y1="0" x2="1" y2="0" id="grad0-15" gradientTransform="matrix(-1.83697e-16 -1 1 -1.83697e-16 1.11022e-16 1)"><stop offset="0" stop-color="#FEFEFE"/><stop offset="1" stop-color="#FFFFFF"/></linearGradient></defs><defs id="Markers"><marker refX="6.68" markerUnits="strokeWidth" orient="auto" id="mrkr4-39" stroke="#A5A5A5" stroke-width="0.284091" fill="#A5A5A5" overflow="visible"><use width="100%" height="100%" xlink:href="#lend4" transform="scale(3.52 3.52)"></use></marker><marker refX="-7.04" markerUnits="strokeWidth" orient="auto" id="mrkr4-41" stroke="#A5A5A5" stroke-width="0.284091" fill="#A5A5A5" overflow="visible"><use width="100%" height="100%" xlink:href="#lend4" transform="scale(-3.52 -3.52)"></use></marker><marker refX="-3.12" markerUnits="strokeWidth" orient="auto" id="mrkr4-220" stroke="#A5A5A5" stroke-width="0.641026" fill="#A5A5A5" overflow="visible"><use width="100%" height="100%" xlink:href="#lend4" transform="scale(-1.56 -1.56)"></use></marker><g id="lend4"><path d="M2 1 0 0 2-1 2 1"/></g></defs><g><g id="group3037-1" transform="translate(19 -91)"><g id="group3038-2"><g id="shape3039-3" transform="translate(2.88 2.88)"></g><g id="shape3038-5"><path d="M0 685 531 685 1062 685 1062 158.5 531 158.5 0 158.5 0 685Z" stroke="#7F7F7F" stroke-width="2" stroke-linecap="round" stroke-linejoin="round" fill="#FFFFFF"/></g></g><g id="group3040-7" transform="matrix(1 0 0 1 0 -504)"><g id="shape3041-8"></g><g id="shape3040-12"><text fill="#8D6B01" font-family="Calibri" font-stretch="semi-expanded" font-size="100.001%" x="6" y="677.35">Browser</text></g></g></g><g id="shape3000-17" transform="translate(32.5 -307)"><rect x="0" y="469" width="135" height="216" stroke="#A5A5A5" stroke-width="2" stroke-linecap="round" stroke-linejoin="round" fill="#FFFFFF"/><text fill="#5C5C5C" font-family="Calibri" font-size="66.6664%" x="26.37" y="579.4">AOT Business Application</text></g><g id="shape3013-20" transform="translate(32.5 -492.76)"><rect x="0" y="654.76" width="135" height="30.24" stroke="#A5A5A5" stroke-width="2" stroke-linecap="round" stroke-linejoin="round" fill="#BD830A"/><text fill="#FFFFFF" font-family="Calibri" font-size="66.6664%" x="6.29" y="672.28">Micro-frontend Dependency Resolver</text></g><g id="shape3014-23" transform="translate(32.5 -307)"><rect x="0" y="667" width="135" height="18" stroke="#A5A5A5" stroke-width="2" stroke-linecap="round" stroke-linejoin="round" fill="#482F51"/><text fill="#FFFFFF" font-family="Calibri" font-size="66.6664%" x="33.37" y="678.4">AOT Service Provider</text></g><g id="shape3015-26" transform="translate(248.5 -19)"><rect x="0" y="654.76" width="148.5" height="30.24" stroke="#A5A5A5" stroke-width="2" stroke-linecap="round" stroke-linejoin="round" fill="#FFFFFF"/><text fill="#5C5C5C" font-family="Calibri" font-size="66.6664%" x="61.04" y="672.28">AOT API</text></g><g id="shape3021-29" transform="translate(266.5 -555.76)"><rect x="0" y="654.76" width="72" height="30.24" stroke="#A5A5A5" stroke-width="2" stroke-linecap="round" stroke-linejoin="round" fill="#FFFFFF"/><text fill="#000000" font-family="Calibri" font-size="66.6664%" x="13.29" y="667.48">Browser Local <tspan font-size="100%" x="23.53" dy="1.2em">Storage</tspan></text></g><g id="shape3022-33" transform="translate(100 -523)"><path d="M0 678.32 0 677.96 0 667 202.5 667 202.5 659.28" stroke="#A5A5A5" stroke-linecap="round" stroke-linejoin="round" marker-start="url(#mrkr4-39)" marker-end="url(#mrkr4-41)"/></g><g id="shape3023-42" transform="translate(230.5 -505)"><path d="M-0 678.32 -0 677.96 -0 649 72 649 72 641.28" stroke="#A5A5A5" stroke-linecap="round" stroke-linejoin="round" marker-start="url(#mrkr4-39)" marker-end="url(#mrkr4-41)"/></g><g id="shape3024-49" transform="translate(329.5 -505)"><path d="M0 678.32 0 677.96 0 649-27 649-27 641.28" stroke="#A5A5A5" stroke-linecap="round" stroke-linejoin="round" marker-start="url(#mrkr4-39)" marker-end="url(#mrkr4-41)"/></g><g id="shape3025-56" transform="translate(428.5 -505)"><path d="M0 678.32 0 677.96 0 649.75-126 649.75-126 641.28" stroke="#A5A5A5" stroke-linecap="round" stroke-linejoin="round" marker-start="url(#mrkr4-39)" marker-end="url(#mrkr4-41)"/></g><g id="shape3026-63" transform="translate(527.5 -505)"><path d="M0 678.32 0 677.96 0 649.75-225 649.75-225 641.28" stroke="#A5A5A5" stroke-linecap="round" stroke-linejoin="round" marker-start="url(#mrkr4-39)" marker-end="url(#mrkr4-41)"/></g><g id="shape3027-70" transform="translate(32.5 -325)"><rect x="0" y="643" width="67.5" height="42" stroke="#A5A5A5" stroke-width="2" stroke-linecap="round" stroke-linejoin="round" fill="#9ACFE8"/><text fill="#5C5C5C" font-family="Calibri" font-size="66.6664%" x="9.47" y="666.4">Authentication</text></g><g id="shape3028-73" transform="translate(100 -325)"><rect x="0" y="643" width="67.5" height="42" stroke="#A5A5A5" stroke-width="2" stroke-linecap="round" stroke-linejoin="round" fill="#6FAF95"/><text fill="#5C5C5C" font-family="Calibri" font-size="66.6664%" x="16.26" y="666.4">Navigation</text></g><g id="group5013-76" transform="translate(185.5 -325)"><g id="shape3001-77"><rect x="0" y="505" width="90" height="180" stroke="#A5A5A5" stroke-width="2" stroke-linecap="round" stroke-linejoin="round" fill="#FFFFFF"/><text fill="#5C5C5C" font-family="Calibri" font-size="66.6664%" x="10.3" y="592.6">Operations Hierarchy<tspan font-size="100%" x="17.68" dy="1.2em">(micro</tspan>-frontend)</text></g><g id="shape3005-81"><rect x="0" y="670" width="90" height="15" stroke="#A5A5A5" stroke-width="2" stroke-linecap="round" stroke-linejoin="round" fill="#482F51"/><text fill="#FFFFFF" font-family="Calibri" font-size="66.6664%" x="10.87" y="679.9">AOT Service Provider</text></g><g id="shape3009-84" transform="matrix(1 0 0 1 0 -154.8)"><rect x="0" y="659.8" width="90" height="25.2" stroke="#A5A5A5" stroke-width="2" stroke-linecap="round" stroke-linejoin="round" fill="#BD830A"/><text fill="#FFFFFF" font-family="Calibri" font-size="66.6664%" x="19.88" y="670">Micro-frontend <tspan font-size="100%" x="9.81" dy="1.2em">Dependency Resolver</tspan></text></g></g><g id="group5014-88" transform="translate(284.5 -325)"><g id="shape3002-89"><rect x="0" y="505" width="90" height="180" stroke="#A5A5A5" stroke-width="2" stroke-linecap="round" stroke-linejoin="round" fill="#FFFFFF"/><text fill="#5C5C5C" font-family="Calibri" font-size="66.6664%" x="29.26" y="592.6">Smart KPI<tspan font-size="100%" x="17.68" dy="1.2em">(micro</tspan>-frontend)</text></g><g id="shape3006-93"><rect x="0" y="670" width="90" height="15" stroke="#A5A5A5" stroke-width="2" stroke-linecap="round" stroke-linejoin="round" fill="#482F51"/><text fill="#FFFFFF" font-family="Calibri" font-size="66.6664%" x="10.87" y="679.9">AOT Service Provider</text></g><g id="shape3010-96" transform="translate(1.91847e-13 -154.8)"><rect x="0" y="659.8" width="90" height="25.2" stroke="#A5A5A5" stroke-width="2" stroke-linecap="round" stroke-linejoin="round" fill="#BD830A"/><text fill="#FFFFFF" font-family="Calibri" font-size="66.6664%" x="19.88" y="670">Micro-frontend <tspan font-size="100%" x="9.81" dy="1.2em">Dependency Resolver</tspan></text></g></g><g id="group5015-100" transform="translate(383.5 -325)"><g id="shape3003-101"><rect x="0" y="505" width="90" height="180" stroke="#A5A5A5" stroke-width="2" stroke-linecap="round" stroke-linejoin="round" fill="#FFFFFF"/><text fill="#5C5C5C" font-family="Calibri" font-size="66.6664%" x="22.43" y="592.6">Insight details<tspan font-size="100%" x="17.68" dy="1.2em">(micro</tspan>-frontend)</text></g><g id="shape3007-105"><rect x="0" y="670" width="90" height="15" stroke="#A5A5A5" stroke-width="2" stroke-linecap="round" stroke-linejoin="round" fill="#482F51"/><text fill="#FFFFFF" font-family="Calibri" font-size="66.6664%" x="10.87" y="679.9">AOT Service Provider</text></g><g id="shape3011-108" transform="matrix(1 0 0 1 0 -154.8)"><rect x="0" y="659.8" width="90" height="25.2" stroke="#A5A5A5" stroke-width="2" stroke-linecap="round" stroke-linejoin="round" fill="#BD830A"/><text fill="#FFFFFF" font-family="Calibri" font-size="66.6664%" x="19.88" y="670">Micro-frontend <tspan font-size="100%" x="9.81" dy="1.2em">Dependency Resolver</tspan></text></g></g><g id="group5016-112" transform="translate(482.5 -325)"><g id="shape3004-113"><rect x="0" y="505" width="90" height="180" stroke="#A5A5A5" stroke-width="2" stroke-linecap="round" stroke-linejoin="round" fill="#FFFFFF"/><text fill="#5C5C5C" font-family="Calibri" font-size="66.6664%" x="24.04" y="592.6">3D Visualizer<tspan font-size="100%" x="17.68" dy="1.2em">(micro</tspan>-frontend)</text></g><g id="shape3008-117"><rect x="0" y="670" width="90" height="15" stroke="#A5A5A5" stroke-width="2" stroke-linecap="round" stroke-linejoin="round" fill="#482F51"/><text fill="#FFFFFF" font-family="Calibri" font-size="66.6664%" x="10.87" y="679.9">AOT Service Provider</text></g><g id="shape3012-120" transform="matrix(1 0 0 1 0 -154.8)"><rect x="0" y="659.8" width="90" height="25.2" stroke="#A5A5A5" stroke-width="2" stroke-linecap="round" stroke-linejoin="round" fill="#BD830A"/><text fill="#FFFFFF" font-family="Calibri" font-size="66.6664%" x="19.88" y="670">Micro-frontend <tspan font-size="100%" x="9.81" dy="1.2em">Dependency Resolver</tspan></text></g></g><g id="group5017-124" transform="translate(397 -115.318)"><g id="shape5000-125"><rect x="0" y="493.318" width="119.801" height="191.682" stroke="#A5A5A5" stroke-width="2" stroke-linecap="round" stroke-linejoin="round" fill="#FFFFFF"/><text fill="#5C5C5C" font-family="Calibri" font-size="66.6664%" x="25.97" y="586.76">People Management <tspan font-size="100%" x="18.32" dy="1.2em">Configuration Application</tspan></text></g><g id="shape5002-129"><rect x="0" y="669.026" width="119.801" height="15.9735" stroke="#A5A5A5" stroke-width="2" stroke-linecap="round" stroke-linejoin="round" fill="#482F51"/><text fill="#FFFFFF" font-family="Calibri" font-size="66.6664%" x="25.77" y="679.41">AOT Service Provider</text></g><g id="shape5003-132" transform="matrix(1 0 0 1 0 -15.9735)"><rect x="0" y="647.728" width="59.9007" height="37.2715" stroke="#A5A5A5" stroke-width="2" stroke-linecap="round" stroke-linejoin="round" fill="#9ACFE8"/><text fill="#5C5C5C" font-family="Calibri" font-size="66.6664%" x="5.67" y="668.76">Authentication</text></g><g id="shape5004-135" transform="translate(59.9007 -15.9735)"><rect x="0" y="647.728" width="59.9007" height="37.2715" stroke="#A5A5A5" stroke-width="2" stroke-linecap="round" stroke-linejoin="round" fill="#6FAF95"/><text fill="#5C5C5C" font-family="Calibri" font-size="66.6664%" x="12.46" y="668.76">Navigation</text></g></g><g id="group5018-138" transform="translate(532.775 -115.318)"><g id="shape5005-139"><rect x="0" y="493.318" width="119.801" height="191.682" stroke="#A5A5A5" stroke-width="2" stroke-linecap="round" stroke-linejoin="round" fill="#FFFFFF"/><text fill="#5C5C5C" font-family="Calibri" font-size="66.6664%" x="21.01" y="586.76">Smart KPI Configuration <tspan font-size="100%" x="41.47" dy="1.2em">Application</tspan></text></g><g id="shape5006-143"><rect x="0" y="669.026" width="119.801" height="15.9735" stroke="#A5A5A5" stroke-width="2" stroke-linecap="round" stroke-linejoin="round" fill="#482F51"/><text fill="#FFFFFF" font-family="Calibri" font-size="66.6664%" x="25.77" y="679.41">AOT Service Provider</text></g><g id="shape5007-146" transform="matrix(1 0 0 1 0 -15.9735)"><rect x="0" y="647.728" width="59.9007" height="37.2715" stroke="#A5A5A5" stroke-width="2" stroke-linecap="round" stroke-linejoin="round" fill="#9ACFE8"/><text fill="#5C5C5C" font-family="Calibri" font-size="66.6664%" x="5.67" y="668.76">Authentication</text></g><g id="shape5008-149" transform="translate(59.9007 -15.9735)"><rect x="0" y="647.728" width="59.9007" height="37.2715" stroke="#A5A5A5" stroke-width="2" stroke-linecap="round" stroke-linejoin="round" fill="#6FAF95"/><text fill="#5C5C5C" font-family="Calibri" font-size="66.6664%" x="12.46" y="668.76">Navigation</text></g></g><g id="group5019-152" transform="translate(668.55 -115.318)"><g id="shape5009-153"><rect x="0" y="493.318" width="119.801" height="191.682" stroke="#A5A5A5" stroke-width="2" stroke-linecap="round" stroke-linejoin="round" fill="#FFFFFF"/><text fill="#5C5C5C" font-family="Calibri" font-size="66.6664%" x="7.13" y="586.76">Intelligent Advisor Configuration <tspan font-size="100%" x="41.47" dy="1.2em">Application</tspan></text></g><g id="shape5010-157"><rect x="0" y="669.026" width="119.801" height="15.9735" stroke="#A5A5A5" stroke-width="2" stroke-linecap="round" stroke-linejoin="round" fill="#482F51"/><text fill="#FFFFFF" font-family="Calibri" font-size="66.6664%" x="25.77" y="679.41">AOT Service Provider</text></g><g id="shape5011-160" transform="matrix(1 0 0 1 0 -15.9735)"><rect x="0" y="647.728" width="59.9007" height="37.2715" stroke="#A5A5A5" stroke-width="2" stroke-linecap="round" stroke-linejoin="round" fill="#9ACFE8"/><text fill="#5C5C5C" font-family="Calibri" font-size="66.6664%" x="5.67" y="668.76">Authentication</text></g><g id="shape5012-163" transform="translate(59.9007 -15.9735)"><rect x="0" y="647.728" width="59.9007" height="37.2715" stroke="#A5A5A5" stroke-width="2" stroke-linecap="round" stroke-linejoin="round" fill="#6FAF95"/><text fill="#5C5C5C" font-family="Calibri" font-size="66.6664%" x="12.46" y="668.76">Navigation</text></g></g><g id="group5023-166" transform="translate(804.325 -115.318)"><g id="shape5024-167"><rect x="0" y="493.318" width="119.801" height="191.682" stroke="#A5A5A5" stroke-width="2" stroke-linecap="round" stroke-linejoin="round" fill="#FFFFFF"/><text fill="#5C5C5C" font-family="Calibri" font-size="66.6664%" x="25.36" y="591.56">3D Editor Application</text></g><g id="shape5025-170"><rect x="0" y="669.026" width="119.801" height="15.9735" stroke="#A5A5A5" stroke-width="2" stroke-linecap="round" stroke-linejoin="round" fill="#482F51"/><text fill="#FFFFFF" font-family="Calibri" font-size="66.6664%" x="25.77" y="679.41">AOT Service Provider</text></g><g id="shape5026-173" transform="matrix(1 0 0 1 0 -15.9735)"><rect x="0" y="647.728" width="59.9007" height="37.2715" stroke="#A5A5A5" stroke-width="2" stroke-linecap="round" stroke-linejoin="round" fill="#9ACFE8"/><text fill="#5C5C5C" font-family="Calibri" font-size="66.6664%" x="5.67" y="668.76">Authentication</text></g><g id="shape5027-176" transform="translate(59.9007 -15.9735)"><rect x="0" y="647.728" width="59.9007" height="37.2715" stroke="#A5A5A5" stroke-width="2" stroke-linecap="round" stroke-linejoin="round" fill="#6FAF95"/><text fill="#5C5C5C" font-family="Calibri" font-size="66.6664%" x="12.46" y="668.76">Navigation</text></g></g><g id="group8000-179" transform="translate(581.5 -325)"><g id="shape8001-180"><rect x="0" y="505" width="90" height="180" stroke="#A5A5A5" stroke-width="2" stroke-linecap="round" stroke-linejoin="round" fill="#FFFFFF"/><text fill="#5C5C5C" font-family="Calibri" font-size="66.6664%" x="6.4" y="592.6">Intelligent Advisor Side-<tspan font-size="100%" x="7.75" dy="1.2em">panel (micro</tspan>-frontend)</text></g><g id="shape8002-184"><rect x="0" y="670" width="90" height="15" stroke="#A5A5A5" stroke-width="2" stroke-linecap="round" stroke-linejoin="round" fill="#482F51"/><text fill="#FFFFFF" font-family="Calibri" font-size="66.6664%" x="10.87" y="679.9">AOT Service Provider</text></g><g id="shape8003-187" transform="matrix(1 0 0 1 0 -154.8)"><rect x="0" y="659.8" width="90" height="25.2" stroke="#A5A5A5" stroke-width="2" stroke-linecap="round" stroke-linejoin="round" fill="#BD830A"/><text fill="#FFFFFF" font-family="Calibri" font-size="66.6664%" x="19.88" y="670">Micro-frontend <tspan font-size="100%" x="9.81" dy="1.2em">Dependency Resolver</tspan></text></g></g><g id="shape8004-191" transform="translate(626.5 -505)"><path d="M0 678.32 0 677.96 0 649.75-324 649.75-324 641.28" stroke="#A5A5A5" stroke-linecap="round" stroke-linejoin="round" marker-start="url(#mrkr4-39)" marker-end="url(#mrkr4-41)"/></g><g id="group3029-198" transform="translate(940.099 -115.318)"><g id="shape3030-199"><rect x="0" y="493.318" width="119.801" height="191.682" stroke="#A5A5A5" stroke-width="2" stroke-linecap="round" stroke-linejoin="round" fill="#FFFFFF"/><text fill="#5C5C5C" font-family="Calibri" font-size="66.6664%" x="25.2" y="586.76">Operations Hierarchy <tspan font-size="100%" x="19.5" dy="1.2em">Configuration Apllication</tspan></text></g><g id="shape3031-203"><rect x="0" y="669.026" width="119.801" height="15.9735" stroke="#A5A5A5" stroke-width="2" stroke-linecap="round" stroke-linejoin="round" fill="#482F51"/><text fill="#FFFFFF" font-family="Calibri" font-size="66.6664%" x="25.77" y="679.41">AOT Service Provider</text></g><g id="shape3032-206" transform="matrix(1 0 0 1 0 -15.9735)"><rect x="0" y="647.728" width="59.9007" height="37.2715" stroke="#A5A5A5" stroke-width="2" stroke-linecap="round" stroke-linejoin="round" fill="#9ACFE8"/><text fill="#5C5C5C" font-family="Calibri" font-size="66.6664%" x="5.67" y="668.76">Authentication</text></g><g id="shape3033-209" transform="translate(59.9007 -15.9735)"><rect x="0" y="647.728" width="59.9007" height="37.2715" stroke="#A5A5A5" stroke-width="2" stroke-linecap="round" stroke-linejoin="round" fill="#6FAF95"/><text fill="#5C5C5C" font-family="Calibri" font-size="66.6664%" x="12.46" y="668.76">Navigation</text></g></g><g id="shape3035-212" transform="translate(673.75 -19)"><rect x="0" y="654.76" width="148.5" height="30.24" stroke="#A5A5A5" stroke-width="2" stroke-linecap="round" stroke-linejoin="round" fill="#FFFFFF"/><text fill="#5C5C5C" font-family="Calibri" font-size="66.6664%" x="33.82" y="672.28">Push Notification Service</text></g><g id="shape3036-215" transform="translate(739 -49.24)"><path d="M9 685 9 657.28" stroke="#A5A5A5" stroke-width="4.5" stroke-linecap="round" stroke-linejoin="round" marker-end="url(#mrkr4-220)"/></g><g id="shape3042-221" transform="translate(331.75 -88.75)"><path d="M-9 685-9 710.47" stroke="#A5A5A5" stroke-width="4.5" stroke-linecap="round" stroke-linejoin="round" marker-end="url(#mrkr4-220)"/></g><g id="group3043-226" transform="translate(680.5 -325)"><g id="shape3044-227"><rect x="0" y="505" width="90" height="180" stroke="#A5A5A5" stroke-width="2" stroke-linecap="round" stroke-linejoin="round" fill="#FFFFFF"/><text fill="#5C5C5C" font-family="Calibri" font-size="66.6664%" x="10.56" y="592.6">Entity Viewer (micro-<tspan font-size="100%" x="29.43" dy="1.2em">frontend)</tspan></text></g><g id="shape3045-231"><rect x="0" y="670" width="90" height="15" stroke="#A5A5A5" stroke-width="2" stroke-linecap="round" stroke-linejoin="round" fill="#482F51"/><text fill="#FFFFFF" font-family="Calibri" font-size="66.6664%" x="10.87" y="679.9">AOT Service Provider</text></g><g id="shape3046-234" transform="matrix(1 0 0 1 0 -154.8)"><rect x="0" y="659.8" width="90" height="25.2" stroke="#A5A5A5" stroke-width="2" stroke-linecap="round" stroke-linejoin="round" fill="#BD830A"/><text fill="#FFFFFF" font-family="Calibri" font-size="66.6664%" x="19.88" y="670">Micro-frontend <tspan font-size="100%" x="9.81" dy="1.2em">Dependency Resolver</tspan></text></g></g><g id="shape3047-238" transform="translate(725.5 -505)"><path d="M0 678.32 0 677.96 0 649.75-423 649.75-423 626.16" stroke="#A5A5A5" stroke-linecap="round" stroke-linejoin="round" marker-start="url(#mrkr4-39)" marker-end="url(#mrkr4-41)"/></g><g id="group3048-245" transform="translate(779.5 -325)"><g id="shape3049-246"><rect x="0" y="505" width="90" height="180" stroke="#A5A5A5" stroke-width="2" stroke-linecap="round" stroke-linejoin="round" fill="#FFFFFF"/><text fill="#5C5C5C" font-family="Calibri" font-size="66.6664%" x="16.34" y="592.6">Reporting (micro-<tspan font-size="100%" x="29.43" dy="1.2em">frontend)</tspan></text></g><g id="shape3050-250"><rect x="0" y="670" width="90" height="15" stroke="#A5A5A5" stroke-width="2" stroke-linecap="round" stroke-linejoin="round" fill="#482F51"/><text fill="#FFFFFF" font-family="Calibri" font-size="66.6664%" x="10.87" y="679.9">AOT Service Provider</text></g><g id="shape3051-253" transform="matrix(1 0 0 1 0 -154.8)"><rect x="0" y="659.8" width="90" height="25.2" stroke="#A5A5A5" stroke-width="2" stroke-linecap="round" stroke-linejoin="round" fill="#BD830A"/><text fill="#FFFFFF" font-family="Calibri" font-size="66.6664%" x="19.88" y="670">Micro-frontend <tspan font-size="100%" x="9.81" dy="1.2em">Dependency Resolver</tspan></text></g></g><g id="shape3052-257" transform="translate(824.5 -505)"><path d="M0 678.32 0 677.96 0 649.75-522 649.75-522 641.28" stroke="#A5A5A5" stroke-linecap="round" stroke-linejoin="round" marker-start="url(#mrkr4-39)" marker-end="url(#mrkr4-41)"/></g><g id="group3053-264" transform="translate(261.225 -115.318)"><g id="shape3054-265"><rect x="0" y="493.318" width="119.801" height="191.682" stroke="#A5A5A5" stroke-width="2" stroke-linecap="round" stroke-linejoin="round" fill="#FFFFFF"/><text fill="#5C5C5C" font-family="Calibri" font-size="66.6664%" x="20.74" y="586.76">Reporting Configuration <tspan font-size="100%" x="41.47" dy="1.2em">Application</tspan></text></g><g id="shape3055-269"><rect x="0" y="669.026" width="119.801" height="15.9735" stroke="#A5A5A5" stroke-width="2" stroke-linecap="round" stroke-linejoin="round" fill="#482F51"/><text fill="#FFFFFF" font-family="Calibri" font-size="66.6664%" x="25.77" y="679.41">AOT Service Provider</text></g><g id="shape3056-272" transform="matrix(1 0 0 1 0 -15.9735)"><rect x="0" y="647.728" width="59.9007" height="37.2715" stroke="#A5A5A5" stroke-width="2" stroke-linecap="round" stroke-linejoin="round" fill="#9ACFE8"/><text fill="#5C5C5C" font-family="Calibri" font-size="66.6664%" x="5.67" y="668.76">Authentication</text></g><g id="shape3057-275" transform="translate(59.9007 -15.9735)"><rect x="0" y="647.728" width="59.9007" height="37.2715" stroke="#A5A5A5" stroke-width="2" stroke-linecap="round" stroke-linejoin="round" fill="#6FAF95"/><text fill="#5C5C5C" font-family="Calibri" font-size="66.6664%" x="12.46" y="668.76">Navigation</text></g></g><g id="shape6000-278" display="none" transform="translate(30.8255 -181)"><path d="M0 685 1014.17 685 1014.17 199 0 199 0 685Z" stroke="#333333" stroke-width="0.75" stroke-linecap="round" stroke-linejoin="round" stroke-dasharray="0 2.25" fill="#666666" fill-opacity="0.2"/></g></g></svg>