<svg width="1059.84" height="715.091" viewBox="0 0 794.88 536.318" xmlns="http://www.w3.org/2000/svg" xmlns:xlink="http://www.w3.org/1999/xlink" color-interpolation-filters="sRGB" stroke-linecap="square" stroke-miterlimit="3" fill="none" fill-rule="evenodd" font-size="12" xml:space="preserve" overflow="visible"><defs id="Patterns_And_Gradients"><linearGradient x1="0" y1="0" x2="1" y2="0" id="grad0-11" gradientTransform="matrix(6.12323e-17 1 -1 6.12323e-17 1 0)"><stop offset="0.01" stop-color="#FFFFFF"/><stop offset="0.5" stop-color="#FEFEFE"/><stop offset="1" stop-color="#FFFFFF"/></linearGradient><linearGradient x1="0" y1="0" x2="1" y2="0" id="grad0-15" gradientTransform="matrix(-1.83697e-16 -1 1 -1.83697e-16 1.11022e-16 1)"><stop offset="0"/><stop offset="1" stop-color="#FFFFFF"/></linearGradient><linearGradient x1="0" y1="0" x2="1" y2="0" id="grad0-32" gradientTransform="matrix(-1.83697e-16 -1 1 -1.83697e-16 1.11022e-16 1)"><stop offset="0" stop-color="#FEFEFE"/><stop offset="1" stop-color="#FFFFFF"/></linearGradient><linearGradient x1="0" y1="0" x2="1" y2="0" id="grad0-509"><stop offset="0" stop-color="#005BA1"/><stop offset="0.07" stop-color="#0060A9"/><stop offset="0.36" stop-color="#0071C8"/><stop offset="0.52" stop-color="#0078D4"/><stop offset="0.64" stop-color="#0074CD"/><stop offset="0.82" stop-color="#006ABB"/><stop offset="1" stop-color="#005BA1"/></linearGradient><radialGradient cx="0.5" cy="0.5" r="0.73" id="grad3-519"><stop offset="0" stop-color="#F2F2F2"/><stop offset="0.58" stop-color="#EEEEEE"/><stop offset="1" stop-color="#E6E6E6"/></radialGradient><linearGradient x1="0" y1="0" x2="1" y2="0" id="grad0-587" gradientTransform="matrix(0.707107 -0.707107 0.707107 0.707107 -0.207107 0.5)"><stop offset="0" stop-color="#2E27AD"/><stop offset="1" stop-color="#527FFF"/></linearGradient><linearGradient x1="0" y1="0" x2="1" y2="0" id="grad0-604" gradientTransform="matrix(0.707107 -0.707107 0.707107 0.707107 -0.207107 0.5)"><stop offset="0" stop-color="#B0084D"/><stop offset="1" stop-color="#FF4F8B"/></linearGradient><linearGradient x1="0" y1="0" x2="1" y2="0" id="grad0-612" gradientTransform="matrix(0.707107 -0.707107 0.707107 0.707107 -0.207107 0.5)"><stop offset="0" stop-color="#4D27A8"/><stop offset="1" stop-color="#A166FF"/></linearGradient></defs><defs id="Markers"><marker refX="-6.68" markerUnits="strokeWidth" orient="auto" id="mrkr4-216" stroke="#4F4640" stroke-width="0.284091" fill="#4F4640" overflow="visible"><use width="100%" height="100%" xlink:href="#lend4" transform="scale(-3.52 -3.52)"></use></marker><marker refX="6.68" markerUnits="strokeWidth" orient="auto" id="mrkr4-313" stroke="#4F4640" stroke-width="0.284091" fill="#4F4640" overflow="visible"><use width="100%" height="100%" xlink:href="#lend4" transform="scale(3.52 3.52)"></use></marker><marker refX="-7.04" markerUnits="strokeWidth" orient="auto" id="mrkr4-354" stroke="#4F4640" stroke-width="0.284091" fill="#4F4640" overflow="visible"><use width="100%" height="100%" xlink:href="#lend4" transform="scale(-3.52 -3.52)"></use></marker><marker refX="7.04" markerUnits="strokeWidth" orient="auto" id="mrkr4-361" stroke="#4F4640" stroke-width="0.284091" fill="#4F4640" overflow="visible"><use width="100%" height="100%" xlink:href="#lend4" transform="scale(3.52 3.52)"></use></marker><marker markerUnits="strokeWidth" orient="auto" id="mrkr4-389" stroke="#4F4640" stroke-width="0.284091" fill="#4F4640" overflow="visible"><use width="100%" height="100%" xlink:href="#lend4" transform="scale(-3.52 -3.52)"></use></marker><g id="lend4"><path d="M2 1 0 0 2-1 2 1"/></g></defs><g><g id="group3163-1" transform="translate(41.0547 -29.88)"><g id="group3164-2"><g id="shape3165-3" transform="translate(2.88 2.88)"></g><g id="shape3164-5"><path d="M0 536.32 354.45 536.32 708.89 536.32 708.89 477.82 354.45 477.82 0 477.82 0 536.32Z" stroke="#FDBF01" stroke-width="0.25" stroke-linecap="round" stroke-linejoin="round" fill="#FFFFFF"/></g></g><g id="group3166-7" transform="matrix(1 0 0 1 0 -36)"><g id="shape3167-8"></g><g id="shape3166-12"><text fill="#8D6B01" font-family="Calibri" font-stretch="semi-expanded" font-size="100.001%" x="6" y="528.67">Legend</text></g></g></g><g id="group3168-17" transform="translate(19 -146)"><g id="group3169-18"><g id="shape3170-19" transform="translate(2.88 2.88)"><path d="M0 536.32 36.19 536.32 72.37 536.32 72.37 165 36.19 165 0 165 0 536.32Z" fill="#FFFFFF" fill-opacity="0.4"/></g><g id="shape3169-22"><path d="M0 536.32 36.19 536.32 72.37 536.32 72.37 165 36.19 165 0 165 0 536.32Z" fill="#CCCCCC" fill-opacity="0.4"/></g></g><g id="group3171-25" transform="matrix(1 0 0 1 0 -348.818)"><g id="shape3172-26"></g><g id="shape3171-29"><text fill="#8D6B01" font-family="Calibri" font-stretch="semi-expanded" font-size="100.001%" x="15.25" y="528.67">Sources</text></g></g></g><g id="group3173-34" transform="translate(99 -146)"><g id="group3174-35"><g id="shape3175-36" transform="translate(2.88 2.88)"><path d="M0 536.32 45 536.32 90 536.32 90 164 45 164 0 164 0 536.32Z" fill="#FFFFFF" fill-opacity="0.4"/></g><g id="shape3174-39"><path d="M0 536.32 45 536.32 90 536.32 90 164 45 164 0 164 0 536.32Z" fill="#CCCCCC" fill-opacity="0.4"/></g></g><g id="group3176-42" transform="matrix(1 0 0 1 0 -318.317)"><g id="shape3177-43"></g><g id="shape3176-46"><text fill="#8D6B01" font-family="Calibri" font-stretch="semi-expanded" font-size="100.001%" x="7.45" y="498.52">On-prem / On <tspan font-size="100%" x="18.49" dy="1.2em">edge / On </tspan><tspan font-size="100%" x="12.36" dy="1.2em">cloud / SaaS</tspan></text></g></g></g><g id="group3178-52" transform="translate(676.741 -143.998)"><g id="group3179-53"><g id="shape3180-54" transform="translate(2.88 2.88)"><path d="M0 536.32 48.13 536.32 96.26 536.32 96.26 165 48.13 165 0 165 0 536.32Z" fill="#FFFFFF" fill-opacity="0.4"/></g><g id="shape3179-57"><path d="M0 536.32 48.13 536.32 96.26 536.32 96.26 165 48.13 165 0 165 0 536.32Z" fill="#CCCCCC" fill-opacity="0.4"/></g></g><g id="group3181-60" transform="matrix(1 0 0 1 0 -348.817)"><g id="shape3182-61"></g><g id="shape3181-64"><text fill="#8D6B01" font-family="Calibri" font-stretch="semi-expanded" font-size="100.001%" x="15.14" y="528.67">Applications</text></g></g></g><g id="group3183-68" transform="translate(688.4 -338.572)"><g id="group3184-69"><g id="shape3185-70" transform="translate(2.88 2.88)"></g><g id="shape3184-72"><path d="M0 536.32 37.8 536.32 75.6 536.32 75.6 412.69 37.8 412.69 0 412.69 0 536.32Z" stroke="#A5A5A5" stroke-width="2" stroke-linecap="round" stroke-linejoin="round" fill="#FFFFFF"/></g></g><g id="group3186-74" transform="matrix(1 0 0 1 0 -101.125)"><g id="shape3187-75" transform="matrix(1 0 0 1 0 12.5)"><path d="M1 536.32C24.0659 524.32 51.5341 524.32 74.6 536.32L74.6 531.82C51.5341 519.82 24.0659 519.82 0.999998 531.82L1 536.32Z"/></g><g id="shape3186-78"><path d="M-0 545.32C23.7714 533.32 51.8286 533.32 75.6 545.32L75.6 513.82 0 513.82 0 545.32Z"/><text fill="#3F3F3F" font-family="Calibri" font-stretch="semi-expanded" font-size="100.001%" x="14.15" y="528.67">AOT App</text></g></g></g><g id="group3188-82" transform="translate(18 -119.318)"><g id="group3189-83"><g id="shape3190-84" transform="translate(2.88 2.88)"><path d="M0 536.32 377.5 536.32 755 536.32 755 518.32 377.5 518.32 0 518.32 0 536.32Z" fill="#FFFFFF" fill-opacity="0.4"/></g><g id="shape3189-87"><path d="M0 536.32 377.5 536.32 755 536.32 755 518.32 377.5 518.32 0 518.32 0 536.32Z" fill="#CCCCCC" fill-opacity="0.4"/></g></g><g id="group3191-90" transform="matrix(1 0 0 1 0 4.49999)"><g id="shape3192-91"></g><g id="shape3191-94"><text fill="#8D6B01" font-family="Calibri" font-stretch="semi-expanded" font-size="100.001%" x="355.91" y="528.67">Security</text></g></g></g><g id="group3193-98" transform="translate(194.789 -146)"><g id="group3194-99"><g id="shape3195-100" transform="translate(2.88 2.88)"><path d="M0 536.32 66.21 536.32 132.42 536.32 132.42 164 66.21 164 0 164 0 536.32Z" fill="#FFFFFF" fill-opacity="0.4"/></g><g id="shape3194-103"><path d="M0 536.32 66.21 536.32 132.42 536.32 132.42 164 66.21 164 0 164 0 536.32Z" fill="#CCCCCC" fill-opacity="0.4"/></g></g><g id="group3196-106" transform="matrix(1 0 0 1 0 -349.817)"><g id="shape3197-107"></g><g id="shape3196-110"><text fill="#8D6B01" font-family="Calibri" font-stretch="semi-expanded" font-size="100.001%" x="31.34" y="528.67">CDF Backend</text></g></g></g><g id="shape3198-114" transform="translate(38.6 -268.793)"><path d="M0 536.32 42.4 536.32 42.4 491.39 0 491.39 0 536.32Z" stroke="#A5A5A5" stroke-width="2" stroke-linecap="round" stroke-linejoin="round" stroke-dasharray="14 10" fill="#FFFFFF"/><text fill="#5C5C5C" font-family="Calibri" font-size="66.6664%" x="8.93" y="501.85">Various <tspan font-size="100%" x="7.82" dy="1.2em">external </tspan><tspan font-size="100%" x="13.93" dy="1.2em">data </tspan><tspan font-size="100%" x="4.85" dy="1.2em">sources ...</tspan></text></g><g id="shape3199-120" transform="translate(35.0667 -274.409)"><path d="M0 536.32 42.4 536.32 42.4 491.39 0 491.39 0 536.32Z" stroke="#A5A5A5" stroke-width="2" stroke-linecap="round" stroke-linejoin="round" stroke-dasharray="14 10" fill="#FFFFFF"/><text fill="#5C5C5C" font-family="Calibri" font-size="66.6664%" x="8.93" y="501.85">Various <tspan font-size="100%" x="7.82" dy="1.2em">external </tspan><tspan font-size="100%" x="13.93" dy="1.2em">data </tspan><tspan font-size="100%" x="4.85" dy="1.2em">sources ...</tspan></text></g><g id="shape3200-126" transform="translate(31.5333 -280.025)"><path d="M0 536.32 42.4 536.32 42.4 491.39 0 491.39 0 536.32Z" stroke="#A5A5A5" stroke-width="2" stroke-linecap="round" stroke-linejoin="round" stroke-dasharray="14 10" fill="#FFFFFF"/><text fill="#5C5C5C" font-family="Calibri" font-size="66.6664%" x="8.93" y="501.85">Various <tspan font-size="100%" x="7.82" dy="1.2em">external </tspan><tspan font-size="100%" x="13.93" dy="1.2em">data </tspan><tspan font-size="100%" x="4.85" dy="1.2em">sources ...</tspan></text></g><g id="shape3201-132" transform="translate(28 -389.067)"><rect x="0" y="509.318" width="54" height="27" stroke="#FFFFFF" stroke-linecap="round" stroke-linejoin="round" fill="#8C8987"/><text fill="#FFFFFF" font-family="Calibri" font-size="66.6664%" x="9.71" y="525.22">Simulators</text></g><g id="shape3202-135" transform="translate(28 -285.641)"><path d="M0 536.32 42.4 536.32 42.4 491.39 0 491.39 0 536.32Z" stroke="#A5A5A5" stroke-width="2" stroke-linecap="round" stroke-linejoin="round" stroke-dasharray="14 10" fill="#FFFFFF"/><text fill="#5C5C5C" font-family="Calibri" font-size="66.6664%" x="8.93" y="501.85">Various <tspan font-size="100%" x="7.82" dy="1.2em">external </tspan><tspan font-size="100%" x="13.93" dy="1.2em">data </tspan><tspan font-size="100%" x="4.85" dy="1.2em">sources ...</tspan></text></g><g id="shape3203-141" transform="translate(698.531 -420.75)"><rect x="0" y="526.371" width="54" height="9.9464" stroke="#FFFFFF" stroke-linecap="round" stroke-linejoin="round" fill="#6F8100"/><text fill="#FFFFFF" font-family="Calibri" font-size="66.6664%" x="11.26" y="533.74">Smart KPI</text></g><g id="shape3204-144" transform="translate(50.0547 -38.88)"><rect x="0" y="518.318" width="77.8811" height="18" stroke="#FFFFFF" stroke-linecap="round" stroke-linejoin="round" fill="#6F8100"/><text fill="#FFFFFF" font-family="Calibri" font-size="66.6664%" x="21.64" y="529.72">Smart KPIs</text></g><g id="shape3205-147" transform="translate(133.634 -38.88)"><rect x="0" y="518.318" width="77.8811" height="18" stroke="#FFFFFF" stroke-linecap="round" stroke-linejoin="round" fill="#4472C4"/><text fill="#FFFFFF" font-family="Calibri" font-size="66.6664%" x="24.99" y="529.92">DataOps</text></g><g id="shape3206-150" transform="translate(217.214 -38.88)"><rect x="0" y="518.318" width="77.8811" height="18" stroke="#FFFFFF" stroke-linecap="round" stroke-linejoin="round" fill="#00B1CD"/><text fill="#FFFFFF" font-family="Calibri" font-size="66.6664%" x="9.72" y="529.72">Intelligent advisor</text></g><g id="shape3207-153" transform="translate(698.531 -408.554)"><rect x="0" y="526.371" width="54" height="9.9464" stroke="#FFFFFF" stroke-linecap="round" stroke-linejoin="round" fill="#00B1CD"/><text fill="#FFFFFF" font-family="Calibri" font-size="66.6664%" x="5.67" y="533.74">IA Side-panel</text></g><g id="shape3208-156" transform="translate(300.794 -38.88)"><rect x="0" y="518.318" width="77.8811" height="18" stroke="#FFFFFF" stroke-linecap="round" stroke-linejoin="round" fill="#313139"/><text fill="#FFFFFF" font-family="Calibri" font-size="66.6664%" x="12.98" y="529.72">3D Visulaization</text></g><g id="shape3209-159" transform="translate(384.374 -38.88)"><rect x="0" y="518.318" width="77.8811" height="18" stroke="#FFFFFF" stroke-linecap="round" stroke-linejoin="round" fill="#BD0000"/><text fill="#FFFFFF" font-family="Calibri" font-size="66.6664%" x="4.24" y="529.72">Operations Hierarchy</text></g><g id="shape3210-162" transform="translate(467.953 -38.88)"><rect x="0" y="518.318" width="77.8811" height="18" stroke="#FFFFFF" stroke-linecap="round" stroke-linejoin="round" fill="#81006F"/><text fill="#FFFFFF" font-family="Calibri" font-size="66.6664%" x="5.01" y="529.72">People Management</text></g><g id="shape3211-165" transform="translate(698.531 -384.161)"><rect x="0" y="526.371" width="54" height="9.9464" stroke="#FFFFFF" stroke-linecap="round" stroke-linejoin="round" fill="#BD0000"/><text fill="#FFFFFF" font-family="Calibri" font-size="49.9992%" x="9.64" y="533.14">OH Side-panel</text></g><g id="shape3212-168" transform="translate(698.75 -359.768)"><rect x="0" y="526.371" width="54" height="9.9464" stroke="#FFFFFF" stroke-linecap="round" stroke-linejoin="round" fill="#313139"/><text fill="#FFFFFF" font-family="Calibri" font-size="66.6664%" x="6.85" y="533.74">Twin Viewer</text></g><g id="shape3213-171" transform="translate(690.2 -307.057)"><rect x="0" y="514.875" width="72" height="21.4425" stroke="#FFFFFF" stroke-linecap="round" stroke-linejoin="round" fill="#313139"/><text fill="#FFFFFF" font-family="Calibri" font-size="66.6664%" x="17.45" y="528">Twin Editor</text></g><g id="shape3214-174" transform="translate(690.2 -282.307)"><rect x="0" y="514.875" width="72" height="21.4425" stroke="#FFFFFF" stroke-linecap="round" stroke-linejoin="round" fill="#81006F"/><text fill="#FFFFFF" font-family="Calibri" font-size="66.6664%" x="13.07" y="523.2">People Mgmt. <tspan font-size="100%" x="13.75" dy="1.2em">Configuration</tspan></text></g><g id="group3215-178" transform="translate(18 -92.3175)"><g id="shape3216-179"><path d="M-6 530.69 747.28 530.69 747.28 536.32 752.91 525.07 747.28 513.82 747.28 519.44-6 519.44-6 530.69Z" fill="#FFFFFF"/><path d="M-6 530.69 747.28 530.69 747.28 536.32 752.91 525.07 747.28 513.82 747.28 519.44-6 519.44" stroke-width="2" stroke-linecap="round" stroke-linejoin="round"/></g><g id="shape3217-182"><path d="M0 530.69 747.28 530.69 747.28 536.32 752.91 525.07 747.28 513.82 747.28 519.44 0 519.44" stroke="#A5A5A5" stroke-width="2" stroke-linecap="round" stroke-linejoin="round"/></g><g id="shape3218-185" transform="translate(-4 -7.625)"><rect x="0" y="529.068" width="4" height="7.25" stroke-width="2" stroke-linecap="round" stroke-linejoin="round" fill="#FFFFFF"/></g><g id="shape3215-187"><rect x="367.174" y="520.268" width="18.5589" height="9.59985" stroke-width="7.2" stroke-linecap="butt" fill="#FFFFFF"/><text fill="#5C5C5C" font-family="Calibri" font-size="66.6664%" x="367.17" y="527.47">CI/CD</text></g></g><g id="shape3219-190" transform="translate(690.2 -257.557)"><rect x="0" y="514.875" width="72" height="21.4425" stroke="#FFFFFF" stroke-linecap="round" stroke-linejoin="round" fill="#6F8100"/><text fill="#FFFFFF" font-family="Calibri" font-size="66.6664%" x="20.26" y="523.2">Smart KPI <tspan font-size="100%" x="13.75" dy="1.2em">Configuration</tspan></text></g><g id="shape3220-194" transform="translate(690.2 -232.807)"><rect x="0" y="514.875" width="72" height="21.4425" stroke="#FFFFFF" stroke-linecap="round" stroke-linejoin="round" fill="#00B1CD"/><text fill="#FFFFFF" font-family="Calibri" font-size="66.6664%" x="6.38" y="523.2">Intelligent Advisor <tspan font-size="100%" x="13.75" dy="1.2em">Configuration</tspan></text></g><g id="shape3221-198" transform="translate(698.156 -396.357)"><rect x="0" y="526.371" width="54" height="9.9464" stroke="#FFFFFF" stroke-linecap="round" stroke-linejoin="round" fill="#00B1CD"/><text fill="#FFFFFF" font-family="Calibri" font-size="66.6664%" x="11.67" y="533.74">IA Details</text></g><g id="shape3222-201" transform="translate(690.2 -208.057)"><rect x="0" y="514.875" width="72" height="21.4425" stroke="#FFFFFF" stroke-linecap="round" stroke-linejoin="round" fill="#BD0000"/><text fill="#FFFFFF" font-family="Calibri" font-size="66.6664%" x="7.71" y="528">OH Configuration</text></g><g id="shape3223-204" transform="translate(698.75 -371.964)"><rect x="0" y="526.371" width="54" height="9.9464" stroke="#FFFFFF" stroke-linecap="round" stroke-linejoin="round" fill="#BD0000"/><text fill="#FFFFFF" font-family="Calibri" font-size="49.9992%" x="6.12" y="533.14">OH Entity Viewer</text></g><g id="shape3224-207" transform="translate(690.2 -183.307)"><rect x="0" y="514.875" width="72" height="21.4425" stroke="#FFFFFF" stroke-linecap="round" stroke-linejoin="round" fill="#87905C"/><text fill="#FFFFFF" font-family="Calibri" font-size="66.6664%" x="19.99" y="523.2">Reporting <tspan font-size="100%" x="13.75" dy="1.2em">Configuration</tspan></text></g><g id="shape3225-211" transform="translate(70.4 -313.052)"><path d="M0 541.27C8.19 541.27 8.93 547.98 30.56 549.19L30.92 549.19" stroke="#4F4640" stroke-linecap="round" stroke-linejoin="round" marker-end="url(#mrkr4-216)"/></g><g id="shape3226-217" transform="translate(82 -402.567)"><path d="M0 536.32C4.5 536.32 4.5 561.7 4.5 587.07 4.5 609.82 4.5 632.56 19.05 637.77L19.4 637.83" stroke="#4F4640" stroke-linecap="round" stroke-linejoin="round" marker-end="url(#mrkr4-216)"/></g><g id="group3227-222" transform="translate(108 -156)"><g id="shape3228-223"><rect x="0" y="248.318" width="72" height="288" stroke="#FFFFFF" stroke-linecap="round" stroke-linejoin="round" fill="#4472C4"/></g><g id="shape3229-225" transform="translate(8.57142 -238.796)"><rect x="0" y="503.25" width="54.8572" height="33.0679" stroke="#A5A5A5" stroke-width="2" stroke-linecap="round" stroke-linejoin="round" fill="#FFFFFF"/><text fill="#5C5C5C" font-family="Calibri" font-size="66.6664%" x="14.95" y="517.38">Cognite <tspan font-size="100%" x="10.96" dy="1.2em">extractors</tspan></text></g></g><g id="shape3230-229" transform="translate(117 -357.5)"><rect x="0" y="518.318" width="54" height="18" stroke-width="2" stroke-linecap="round" stroke-linejoin="round"/><text fill="#FFFFFF" font-family="Calibri" font-size="66.6664%" x="9.53" y="524.92">Timeseries <tspan font-size="100%" x="9.18" dy="1.2em">and events</tspan></text></g><g id="shape3231-233" transform="translate(551.533 -38.88)"><rect x="0" y="518.318" width="77.8811" height="18" stroke="#FFFFFF" stroke-linecap="round" stroke-linejoin="round" fill="#87905C"/><text fill="#FFFFFF" font-family="Calibri" font-size="66.6664%" x="22.93" y="529.72">Reporting</text></g><g id="shape3232-236" transform="translate(635.113 -38.88)"><rect x="0" y="518.318" width="77.8811" height="18" stroke="#FFFFFF" stroke-linecap="round" stroke-linejoin="round" fill="#CD8300"/><text fill="#FFFFFF" font-family="Calibri" font-size="66.6664%" x="15.23" y="529.72">Platform Tools</text></g><g id="shape3233-239" transform="translate(698.75 -347.572)"><rect x="0" y="526.371" width="54" height="9.9464" stroke="#FFFFFF" stroke-linecap="round" stroke-linejoin="round" fill="#87905C"/><text fill="#FFFFFF" font-family="Calibri" font-size="66.6664%" x="10.99" y="533.74">Reporting</text></g><g id="shape3234-242" transform="translate(113.794 -330.5)"><rect x="0" y="518.318" width="61.0313" height="18" stroke="#FFFFFF" stroke-linecap="round" stroke-linejoin="round" fill="#91B5DE"/><text fill="#FFFFFF" font-family="Calibri" font-size="58.3328%" x="9.6" y="529.42">PI AF Extractor</text></g><g id="shape3235-245" transform="translate(113.794 -308)"><rect x="0" y="518.318" width="61.0313" height="18" stroke="#FFFFFF" stroke-linecap="round" stroke-linejoin="round" fill="#91B5DE"/><text fill="#FFFFFF" font-family="Calibri" font-size="58.3328%" x="5.68" y="529.42">SAP PM Extractor</text></g><g id="shape3236-248" transform="translate(113.794 -285.5)"><rect x="0" y="518.318" width="61.0313" height="18" stroke="#FFFFFF" stroke-linecap="round" stroke-linejoin="round" fill="#91B5DE"/><text fill="#FFFFFF" font-family="Calibri" font-size="58.3328%" x="4.27" y="529.42">Hexagon Extractor</text></g><g id="shape3237-251" transform="translate(113.794 -263)"><rect x="0" y="518.318" width="61.0313" height="18" stroke="#FFFFFF" stroke-linecap="round" stroke-linejoin="round" fill="#91B5DE"/><text fill="#FFFFFF" font-family="Calibri" font-size="58.3328%" x="5.08" y="529.42">Maximo Extractor</text></g><g id="shape3238-254" transform="translate(113.794 -240.5)"><rect x="0" y="518.318" width="61.0313" height="18" stroke="#FFFFFF" stroke-linecap="round" stroke-linejoin="round" fill="#91B5DE"/><text fill="#FFFFFF" font-family="Calibri" font-size="58.3328%" x="8.11" y="529.42">Aveva Extractor</text></g><g id="shape3239-257" transform="translate(113.794 -218)"><rect x="0" y="518.318" width="61.0313" height="18" stroke="#FFFFFF" stroke-linecap="round" stroke-linejoin="round" fill="#91B5DE"/><text fill="#FFFFFF" font-family="Calibri" font-size="58.3328%" x="10.47" y="529.42">IP21 Extractor</text></g><g id="shape3240-260" transform="translate(113.794 -195.5)"><rect x="0" y="518.318" width="61.0313" height="18" stroke="#FFFFFF" stroke-linecap="round" stroke-linejoin="round" fill="#91B5DE"/><text fill="#FFFFFF" font-family="Calibri" font-size="58.3328%" x="18.78" y="529.42">Other ...</text></g><g id="shape3241-263" transform="translate(180 -291.524)"><path d="M0 527.84C9 527.84 12.85 527.84 15.05 527.73 18 527.58 18 527.23 20.98 527.04 24.08 526.83 30.42 526.8 41.17 526.79L41.53 526.79" stroke="#4F4640" stroke-linecap="round" stroke-linejoin="round" marker-end="url(#mrkr4-216)"/></g><g id="shape3242-268" transform="translate(180 -300)"><path d="M0 536.32C16.16 536.32 17.81 490.11 35.89 480.69L36.24 480.6" stroke="#4F4640" stroke-linecap="round" stroke-linejoin="round" marker-end="url(#mrkr4-216)"/></g><g id="group3243-273" transform="translate(218.066 -153)"><g id="group3244-274" transform="translate(114.934 7.99984)"><g id="group3245-275"><g id="shape3246-276" transform="translate(2.88 2.88)"><path d="M0 536.32 167.38 536.32 334.77 536.32 334.77 165 167.38 165 0 165 0 536.32Z" fill="#FFFFFF" fill-opacity="0.4"/></g><g id="shape3245-279"><path d="M0 536.32 167.38 536.32 334.77 536.32 334.77 165 167.38 165 0 165 0 536.32Z" fill="#CCCCCC" fill-opacity="0.4"/></g></g><g id="group3247-282" transform="matrix(1 0 0 1 0 -348.817)"><g id="shape3248-283"></g><g id="shape3247-286"><text fill="#8D6B01" font-family="Calibri" font-stretch="semi-expanded" font-size="100.001%" x="130.53" y="528.67">AWS backend</text></g></g></g><g id="group3249-290" transform="translate(124.427 -304.594)"><g id="shape3250-291"><rect x="0" y="515.574" width="72.375" height="20.7436" stroke="#FFFFFF" stroke-linecap="round" stroke-linejoin="round" fill="#4472C4"/><text fill="#FFFFFF" font-family="Calibri" font-size="66.6664%" x="4" y="526.77">Transformations</text></g></g><g id="shape3251-294" transform="translate(-38.0656 -147)"><path d="M0 536.32C39.21 536.32 39.21 527.58 46.56 522.85 55.22 517.27 74.11 517.27 91.71 517.27 112.43 517.27 131.36 517.27 141.56 506.75 153.49 494.45 153.49 467.77 153.49 434.99 153.49 411.31 153.49 384.45 157.64 373.45L157.89 373.19" stroke="#4F4640" stroke-linecap="round" stroke-linejoin="round" marker-end="url(#mrkr4-216)"/></g><g id="shape3252-299" transform="translate(160.614 -304.594)"><path d="M0 536.32C0 554.32-26.84 554.32-53.69 554.32-82.92 554.32-112.16 554.32-114.34 611.37L-114.35 611.73" stroke="#4F4640" stroke-linecap="round" stroke-linejoin="round" marker-end="url(#mrkr4-216)"/></g><g id="shape3253-304" transform="translate(337.809 -306.273)"><rect x="0" y="515.574" width="72" height="20.7436" stroke="#FFFFFF" stroke-linecap="round" stroke-linejoin="round" fill="#0C0C0C"/><text fill="#FFFFFF" font-family="Calibri" font-size="66.6664%" x="4" y="526.77">3DCE</text></g><g id="shape3254-307" transform="translate(350.072 -48.0525)"><path d="M-12.14 534.41-12.48 534.3C-30.26 522.65-30.26 462.27-30.26 401.89-30.26 343.63-30.26 285.36-18.47 271.05L-18.15 270.88" stroke="#4F4640" stroke-linecap="round" stroke-linejoin="round" marker-start="url(#mrkr4-313)" marker-end="url(#mrkr4-216)"/></g><g id="shape3255-315" transform="translate(472.134 -164.779)"><path d="M-6.35 534.24-6.69 534.12C-18 525.61-18 493.64-18 461.67-18 425.22-18 388.77-55.29 384.81L-55.65 384.79" stroke="#4F4640" stroke-linecap="round" stroke-linejoin="round" marker-start="url(#mrkr4-313)" marker-end="url(#mrkr4-216)"/></g></g><g id="shape3256-322" transform="matrix(6.12323e-17 -1 1 6.12323e-17 121.005 386.601)"><rect x="0" y="525" width="228.284" height="11.3175" stroke="#A5A5A5" stroke-width="2" stroke-linecap="round" stroke-linejoin="round" fill="#FFFFFF"/><text fill="#5C5C5C" font-family="Calibri" font-size="66.6664%" x="100.94" y="533.06">AOT API</text></g><g id="group3257-325" transform="translate(555.425 -149.717)"><g id="shape3258-326" transform="translate(6.975 -99.591)"><rect x="0" y="510.334" width="54" height="25.9835" stroke="#FFFFFF" stroke-linecap="round" stroke-linejoin="round" fill="#6F8100"/><text fill="#FFFFFF" font-family="Calibri" font-size="66.6664%" x="11.26" y="525.73">Smart KPI</text></g><g id="shape3259-329" transform="translate(6.975 -130.214)"><rect x="0" y="510.334" width="54" height="25.9835" stroke="#FFFFFF" stroke-linecap="round" stroke-linejoin="round" fill="#00B1CD"/><text fill="#FFFFFF" font-family="Calibri" font-size="66.6664%" x="10.49" y="520.93">Intelligent <tspan font-size="100%" x="14.79" dy="1.2em">Advisor</tspan></text></g><g id="shape3260-333" transform="translate(6.975 -160.541)"><rect x="0" y="510.334" width="54" height="25.9835" stroke="#FFFFFF" stroke-linecap="round" stroke-linejoin="round" fill="#81006F"/><text fill="#FFFFFF" font-family="Calibri" font-size="66.6664%" x="15.82" y="520.93">People <tspan font-size="100%" x="5.15" dy="1.2em">Management</tspan></text></g><g id="shape3261-337" transform="translate(6.975 -68.9677)"><rect x="0" y="510.334" width="54" height="25.9835" stroke="#FFFFFF" stroke-linecap="round" stroke-linejoin="round" fill="#BD0000"/><text fill="#FFFFFF" font-family="Calibri" font-size="66.6664%" x="8.92" y="520.93">Operations <tspan font-size="100%" x="11.29" dy="1.2em">Hierarchy</tspan></text></g><g id="shape3262-341"><rect x="0" y="308.034" width="67.95" height="228.284" stroke="#A5A5A5" stroke-width="0.25" stroke-linecap="round" stroke-linejoin="round"/></g><g id="shape3263-343" transform="translate(6.975 -38.3442)"><rect x="0" y="510.334" width="54" height="25.9835" stroke="#FFFFFF" stroke-linecap="round" stroke-linejoin="round" fill="#313139"/><text fill="#FFFFFF" font-family="Calibri" font-size="66.6664%" x="6.85" y="525.73">Twin Viewer</text></g><g id="shape3264-346" transform="translate(6.975 -7.72079)"><rect x="0" y="510.334" width="54" height="25.9835" stroke="#FFFFFF" stroke-linecap="round" stroke-linejoin="round" fill="#87905C"/><text fill="#FFFFFF" font-family="Calibri" font-size="66.6664%" x="10.99" y="525.73">Reporting</text></g></g><g id="shape3265-349" transform="translate(598.394 -378)"><path d="M-8.99 536.32-8.99 527.32-9.01 527.32-9.01 521.76" stroke="#4F4640" stroke-linecap="round" stroke-linejoin="round" marker-end="url(#mrkr4-354)"/></g><g id="shape3266-355" transform="translate(646.005 -254.858)"><path d="M-7.04 527.32C-9.82 527.32-12.81 527.32-15.59 527.32" stroke="#4F4640" stroke-linecap="round" stroke-linejoin="round" marker-start="url(#mrkr4-361)" marker-end="url(#mrkr4-354)"/></g><g id="shape3267-363" transform="translate(616.388 -414)"><path d="M0 536.32C51.35 536.32 51.35 559 51.35 581.69 51.35 595.69 51.35 609.7 54.7 616.47L54.98 616.69" stroke="#4F4640" stroke-linecap="round" stroke-linejoin="round" marker-end="url(#mrkr4-216)"/></g><g id="shape3268-368" transform="translate(657.323 -263.858)"><path d="M5.56 532.62 5.86 532.42C9 526.59 9 515.03 9 503.47 9 491.36 9 479.26 13.13 473.69L13.45 473.53" stroke="#4F4640" stroke-linecap="round" stroke-linejoin="round" marker-start="url(#mrkr4-313)" marker-end="url(#mrkr4-216)"/></g><g id="shape3269-375" transform="translate(305.695 -357.298)"><path d="M4.76 541 5.02 541.26C9 551.34 9 575.39 9 599.45 9 629.42 9 659.4 34.63 663.86L34.99 663.89" stroke="#4F4640" stroke-linecap="round" stroke-linejoin="round" marker-start="url(#mrkr4-313)" marker-end="url(#mrkr4-216)"/></g><g id="shape3270-382" transform="translate(419.719 -229.183)"><path d="M4.81 531.68 5.07 531.43C16.93 506.67 19.65 400.1 135.71 501.64" stroke="#4F4640" stroke-linecap="round" stroke-linejoin="round" marker-start="url(#mrkr4-313)" marker-end="url(#mrkr4-389)"/></g><g id="shape3271-390" transform="translate(555.425 -263.858)"><path d="M-5.85 533.09-6.16 532.91C-9 528.36-9 519.88-9 511.41-9 477.48-9 443.55-242.69 442.89L-243.05 442.89" stroke="#4F4640" stroke-linecap="round" stroke-linejoin="round" marker-start="url(#mrkr4-313)" marker-end="url(#mrkr4-216)"/></g><g id="shape3272-397" transform="translate(222.727 -357.298)"><path d="M-6.23 538.73-6.56 538.86C-12.52 544.62-12.52 559.15-12.52 572.05-12.52 591.33-12.52 606.96 3.48 613.94 14.47 618.73 33.01 619.44 38.26 630.67L38.33 631.03" stroke="#4F4640" stroke-linecap="round" stroke-linejoin="round" marker-start="url(#mrkr4-313)" marker-end="url(#mrkr4-216)"/></g><g id="shape3273-404" transform="translate(374.484 -363.866)"><path d="M9 536.32C9 541.38 9 550.12 9 557.2" stroke="#4F4640" stroke-linecap="round" stroke-linejoin="round" stroke-dasharray="7 5" marker-end="url(#mrkr4-354)"/></g><g id="group3274-409" transform="translate(222.727 -339.095)"><g id="group3275-410"><g id="group3276-411"><g id="shape3277-412"><rect x="0" y="499.913" width="82.9688" height="36.4049" stroke="#FFFFFF" stroke-linecap="round" stroke-linejoin="round" fill="#4472C4"/><text fill="#FFFFFF" font-family="Calibri" font-size="66.6664%" x="15.07" y="520.32">CDF Data Model</text></g><g id="shape3278-415" transform="translate(3.87001 -30.0688)"><rect x="0" y="534.518" width="12.96" height="1.79963" stroke-width="2" stroke-linecap="round" stroke-linejoin="round" fill="#4472C4"/></g><g id="shape3279-417" transform="translate(5.25 -8.47324)"><rect x="0" y="534.518" width="12.96" height="1.79963" stroke-width="2" stroke-linecap="round" stroke-linejoin="round" fill="#4472C4"/></g></g><g id="shape3280-419" transform="translate(64.665 -0.739962)"><rect x="0" y="534.518" width="12.96" height="1.79963" stroke-width="2" stroke-linecap="round" stroke-linejoin="round" fill="#4472C4"/></g></g><g id="shape3281-421" transform="translate(5.25 -0.739962)"><rect x="0" y="534.518" width="12.96" height="1.79963" stroke-width="2" stroke-linecap="round" stroke-linejoin="round" fill="#4472C4"/></g></g><g id="shape3282-423" transform="translate(305.695 -357.298)"><path d="M0 536.32C8.16 536.32 8.92 506.9 29.32 501.38L29.68 501.34" stroke="#4F4640" stroke-linecap="round" stroke-linejoin="round" marker-end="url(#mrkr4-216)"/></g><g id="shape3283-428" transform="translate(374.508 -292.789)"><path d="M8.98 536.32C8.98 545.32 8.98 549.5 8.98 551.74 8.99 554.32 9.01 554.32 9.01 556.9 9.02 559.16 9.02 563.42 9.02 570.7L9.02 571.06" stroke="#4F4640" stroke-linecap="round" stroke-linejoin="round" marker-end="url(#mrkr4-216)"/></g><g id="group3284-433" transform="translate(228.211 -292.048)"><g id="shape3285-434"><rect x="0" y="518.318" width="72" height="18" stroke="#FFFFFF" stroke-linecap="round" stroke-linejoin="round" fill="#4472C4"/><text fill="#FFFFFF" font-family="Calibri" font-size="66.6664%" x="4" y="529.52">Transformations</text></g></g><g id="shape3286-437" transform="translate(255.211 -310.048)"><path d="M9 536.32C9 530.98 9 521.73 9 514.31" stroke="#4F4640" stroke-linecap="round" stroke-linejoin="round" marker-end="url(#mrkr4-354)"/></g><g id="group3287-442" transform="translate(224.611 -157.048)"><g id="group3288-443"><g id="shape3289-444"><rect x="0" y="437.318" width="75.6" height="99" stroke="#FFFFFF" stroke-linecap="round" stroke-linejoin="round" fill="#4472C4"/><text fill="#FFFFFF" font-family="Calibri" font-size="66.6664%" x="4" y="448.52">Contextualization</text></g></g><g id="shape3290-447" transform="translate(5.48436 -48.7999)"><rect x="0" y="513.117" width="61.0313" height="23.2002" stroke-width="0.75" stroke-linecap="butt"/><text fill="#000000" font-family="Calibri" font-size="75%" x="1.56" y="522.02">Entity Matching <tspan font-size="100%" x="15.89" dy="1.2em">Pipeline</tspan></text></g><g id="shape3291-451" transform="translate(3.61024 -9.42359)"><rect x="0" y="514.875" width="68.3795" height="21.4425" stroke-width="0.75" stroke-linecap="butt"/><text fill="#000000" font-family="Calibri" font-size="75%" x="3.45" y="522.9">User suppported <tspan font-size="100%" x="2.55" dy="1.2em">contextualization</tspan></text></g></g><g id="shape3292-455" transform="translate(305.695 -357.298)"><path d="M0 536.32C8.16 536.32 8.92 571.61 29.34 578.2L29.7 578.25" stroke="#4F4640" stroke-linecap="round" stroke-linejoin="round" marker-end="url(#mrkr4-216)"/></g><g id="group3293-460" transform="translate(342 -363.866)"><g id="shape3294-461"><rect x="0" y="477.818" width="82.9688" height="58.5" stroke="#FFFFFF" stroke-linecap="round" stroke-linejoin="round" fill="#CD8300"/><text fill="#FFFFFF" font-family="Calibri" font-size="66.6664%" x="4" y="489.02">ML training <tspan font-size="100%" x="4" dy="1.2em">environment</tspan></text></g></g><g id="group3295-465" transform="translate(376.172 -380.023)"><g id="shape3296-466"><path d="M14.63 521.69 0 521.69 0 536.32 14.63 536.32 14.63 521.69Z" stroke-width="0.75" stroke-linecap="butt" fill="#1C7B68"/></g><g id="shape3297-468" transform="translate(2.43559 -2.38678)"><path d="M6.09 536.32C6.06 536.32 6.02 536.31 5.99 536.29L4.88 535.62 3.76 536.29C3.73 536.31 3.7 536.32 3.66 536.32 3.63 536.32 3.59 536.31 3.56 536.29L1.27 534.89C1.24 534.87 1.22 534.85 1.2 534.82 1.19 534.79 1.18 534.76 1.18 534.72L1.18 533.32 0.1 532.71C0.07 532.7 0.04 532.67 0.03 532.64 0.01 532.61 0 532.58 0 532.54L0 530.24C0 530.2 0.01 530.17 0.03 530.14 0.04 530.11 0.07 530.09 0.1 530.07L1.17 529.46 1.17 528.06C1.17 528.03 1.18 527.99 1.2 527.96 1.21 527.93 1.24 527.91 1.26 527.89L3.56 526.49C3.59 526.48 3.62 526.47 3.65 526.47 3.69 526.47 3.72 526.48 3.75 526.49L4.87 527.16 5.99 526.49C6.02 526.48 6.05 526.47 6.08 526.47 6.12 526.47 6.15 526.48 6.18 526.49L8.48 527.89C8.51 527.91 8.54 527.94 8.55 527.96 8.57 527.99 8.58 528.03 8.58 528.06L8.58 529.46 9.65 530.07C9.68 530.09 9.71 530.11 9.73 530.14 9.74 530.17 9.75 530.2 9.75 530.24L9.75 532.54C9.75 532.58 9.74 532.61 9.73 532.64 9.71 532.67 9.68 532.7 9.65 532.71L8.58 533.32 8.58 534.72C8.58 534.76 8.57 534.79 8.56 534.82 8.54 534.85 8.52 534.87 8.49 534.89L6.2 536.29C6.16 536.31 6.13 536.32 6.09 536.32ZM5.07 535.28 6.09 535.89 8.19 534.61 8.19 533.21C8.19 533.17 8.2 533.14 8.22 533.11 8.24 533.08 8.26 533.05 8.29 533.04L9.16 532.55 8.43 532.15C8.33 532.23 8.21 532.28 8.08 532.28 7.96 532.29 7.83 532.25 7.73 532.17 7.63 532.09 7.55 531.98 7.52 531.86 7.49 531.73 7.5 531.6 7.56 531.49 7.61 531.37 7.7 531.28 7.82 531.22 7.93 531.16 8.06 531.15 8.19 531.18 8.31 531.2 8.42 531.27 8.5 531.37 8.58 531.47 8.63 531.6 8.62 531.72 8.63 531.75 8.63 531.78 8.62 531.81L9.37 532.21 9.37 530.35 8.29 529.75C8.26 529.73 8.23 529.7 8.22 529.67 8.2 529.64 8.19 529.61 8.19 529.58L8.19 529.05 7.65 529.05C7.61 529.18 7.52 529.28 7.4 529.34 7.29 529.41 7.16 529.43 7.03 529.41 6.9 529.39 6.78 529.32 6.69 529.22 6.61 529.12 6.56 528.99 6.56 528.86 6.56 528.73 6.61 528.6 6.69 528.5 6.78 528.4 6.9 528.33 7.03 528.3 7.16 528.28 7.29 528.3 7.4 528.37 7.52 528.43 7.61 528.54 7.65 528.66L8.19 528.66 8.19 528.17 6.09 526.89 5.07 527.5 5.07 529.64 6.16 530.27C6.26 530.2 6.38 530.16 6.51 530.16 6.63 530.16 6.75 530.21 6.85 530.29 6.94 530.37 7.01 530.48 7.04 530.6 7.06 530.73 7.05 530.85 6.99 530.97 6.93 531.08 6.84 531.17 6.73 531.22 6.62 531.28 6.49 531.29 6.36 531.26 6.24 531.23 6.13 531.16 6.05 531.06 5.98 530.97 5.93 530.84 5.93 530.72 5.93 530.68 5.94 530.64 5.95 530.6L4.78 529.93C4.75 529.91 4.73 529.89 4.71 529.86 4.69 529.83 4.68 529.8 4.68 529.76L4.68 527.5 3.66 526.89 2.73 527.45 2.73 528.83 2.34 528.83 2.34 527.69 1.56 528.17 1.56 529.47 2.54 530.02 3.51 529.47 3.51 528.47 3.9 528.47 3.9 529.58C3.9 529.61 3.89 529.64 3.88 529.67 3.86 529.7 3.83 529.73 3.8 529.75L2.73 530.35 2.73 531.28 3.8 531.98C3.83 532 3.85 532.02 3.87 532.05 3.89 532.08 3.89 532.11 3.89 532.15L3.89 532.8 4.67 532.34 4.67 531.51 3.65 530.9 3.85 530.57 4.97 531.23C5 531.25 5.03 531.28 5.04 531.31 5.06 531.33 5.07 531.37 5.07 531.4L5.07 533.94 5.96 533.94C6.01 533.81 6.1 533.71 6.21 533.65 6.32 533.58 6.46 533.56 6.58 533.58 6.71 533.61 6.83 533.67 6.91 533.77 7 533.87 7.04 534 7.04 534.13 7.04 534.26 6.99 534.38 6.9 534.47 6.82 534.57 6.7 534.63 6.58 534.65 6.46 534.67 6.33 534.65 6.22 534.6 6.1 534.54 6.01 534.44 5.96 534.33L5.07 534.33 5.07 535.28ZM2.85 535.39 3.66 535.89 4.68 535.28 4.68 532.79 2.5 534.08 2.31 533.74 3.51 533.03 3.51 532.25 2.54 531.61 1.44 532.22 1.25 531.88 2.35 531.27 2.35 530.35 1.37 529.8 0.4 530.35 0.4 531.06 1.23 530.57 1.43 530.91 0.39 531.51 0.39 532.43 1.37 532.98 2.35 532.4 2.55 532.73 1.56 533.32 1.56 534.61 2.44 535.15 3.46 534.55 3.47 534.57 3.52 534.55 3.71 534.88 2.85 535.39ZM6.49 533.94C6.46 533.94 6.42 533.95 6.39 533.97 6.37 533.99 6.34 534.02 6.33 534.05 6.32 534.08 6.31 534.11 6.32 534.15 6.33 534.18 6.34 534.21 6.37 534.23 6.39 534.26 6.42 534.27 6.45 534.28 6.49 534.29 6.52 534.28 6.55 534.27 6.58 534.26 6.61 534.24 6.63 534.21 6.65 534.18 6.66 534.15 6.66 534.11 6.66 534.07 6.64 534.03 6.61 534 6.57 533.97 6.53 533.95 6.49 533.95L6.49 533.94ZM8.07 531.55C8.03 531.55 8 531.56 7.97 531.57 7.94 531.59 7.92 531.62 7.91 531.65 7.9 531.68 7.89 531.72 7.9 531.75 7.91 531.78 7.92 531.81 7.95 531.84 7.97 531.86 8 531.88 8.03 531.88 8.07 531.89 8.1 531.89 8.13 531.87 8.16 531.86 8.19 531.84 8.21 531.81 8.22 531.78 8.23 531.75 8.23 531.72 8.23 531.67 8.21 531.63 8.18 531.6 8.15 531.57 8.11 531.55 8.07 531.55L8.07 531.55ZM6.49 530.54C6.46 530.54 6.42 530.55 6.39 530.57 6.37 530.59 6.34 530.61 6.33 530.65 6.32 530.68 6.31 530.71 6.32 530.74 6.33 530.78 6.34 530.81 6.37 530.83 6.39 530.85 6.42 530.87 6.45 530.88 6.49 530.88 6.52 530.88 6.55 530.87 6.58 530.86 6.61 530.83 6.63 530.81 6.65 530.78 6.66 530.74 6.66 530.71 6.66 530.67 6.64 530.63 6.61 530.6 6.57 530.57 6.53 530.55 6.49 530.55L6.49 530.54ZM7.12 528.69C7.09 528.69 7.05 528.7 7.03 528.72 7 528.73 6.98 528.76 6.96 528.79 6.95 528.82 6.95 528.86 6.95 528.89 6.96 528.92 6.98 528.95 7 528.98 7.02 529 7.05 529.02 7.09 529.02 7.12 529.03 7.15 529.03 7.18 529.01 7.22 529 7.24 528.98 7.26 528.95 7.28 528.92 7.29 528.89 7.29 528.86 7.29 528.83 7.29 528.81 7.28 528.79 7.27 528.77 7.26 528.75 7.24 528.74 7.22 528.72 7.21 528.71 7.18 528.7 7.16 528.69 7.14 528.69 7.12 528.69Z" stroke-width="0.75" stroke-linecap="butt" fill="#FFFFFF"/></g><g id="shape3295-470"><text fill="#000000" font-family="Calibri" font-size="75%" x="-25.35" y="544.42">Machine Learning</text></g></g><g id="group3298-472" transform="translate(342 -292.789)"><g id="shape3299-473"><rect x="0" y="493.163" width="82.9688" height="43.155" stroke="#FFFFFF" stroke-linecap="round" stroke-linejoin="round" fill="#CD8300"/><text fill="#FFFFFF" font-family="Calibri" font-size="66.6664%" x="4" y="504.36">ML execution</text></g><g id="shape3300-476" transform="translate(65.6494 -28.6389)"><rect x="0" y="525.529" width="12.96" height="10.7887" stroke-width="2" stroke-linecap="round" stroke-linejoin="round" fill="#CD8300"/></g></g><g id="group3301-478" transform="translate(376.172 -304.601)"><g id="shape3302-479"><path d="M14.63 521.69 0 521.69 0 536.32 14.63 536.32 14.63 521.69Z" stroke-width="0.75" stroke-linecap="butt" fill="#1C7B68"/></g><g id="shape3303-481" transform="translate(2.43559 -2.38678)"><path d="M6.09 536.32C6.06 536.32 6.02 536.31 5.99 536.29L4.88 535.62 3.76 536.29C3.73 536.31 3.7 536.32 3.66 536.32 3.63 536.32 3.59 536.31 3.56 536.29L1.27 534.89C1.24 534.87 1.22 534.85 1.2 534.82 1.19 534.79 1.18 534.76 1.18 534.72L1.18 533.32 0.1 532.71C0.07 532.7 0.04 532.67 0.03 532.64 0.01 532.61 0 532.58 0 532.54L0 530.24C0 530.2 0.01 530.17 0.03 530.14 0.04 530.11 0.07 530.09 0.1 530.07L1.17 529.46 1.17 528.06C1.17 528.03 1.18 527.99 1.2 527.96 1.21 527.93 1.24 527.91 1.26 527.89L3.56 526.49C3.59 526.48 3.62 526.47 3.65 526.47 3.69 526.47 3.72 526.48 3.75 526.49L4.87 527.16 5.99 526.49C6.02 526.48 6.05 526.47 6.08 526.47 6.12 526.47 6.15 526.48 6.18 526.49L8.48 527.89C8.51 527.91 8.54 527.94 8.55 527.96 8.57 527.99 8.58 528.03 8.58 528.06L8.58 529.46 9.65 530.07C9.68 530.09 9.71 530.11 9.73 530.14 9.74 530.17 9.75 530.2 9.75 530.24L9.75 532.54C9.75 532.58 9.74 532.61 9.73 532.64 9.71 532.67 9.68 532.7 9.65 532.71L8.58 533.32 8.58 534.72C8.58 534.76 8.57 534.79 8.56 534.82 8.54 534.85 8.52 534.87 8.49 534.89L6.2 536.29C6.16 536.31 6.13 536.32 6.09 536.32ZM5.07 535.28 6.09 535.89 8.19 534.61 8.19 533.21C8.19 533.17 8.2 533.14 8.22 533.11 8.24 533.08 8.26 533.05 8.29 533.04L9.16 532.55 8.43 532.15C8.33 532.23 8.21 532.28 8.08 532.28 7.96 532.29 7.83 532.25 7.73 532.17 7.63 532.09 7.55 531.98 7.52 531.86 7.49 531.73 7.5 531.6 7.56 531.49 7.61 531.37 7.7 531.28 7.82 531.22 7.93 531.16 8.06 531.15 8.19 531.18 8.31 531.2 8.42 531.27 8.5 531.37 8.58 531.47 8.63 531.6 8.62 531.72 8.63 531.75 8.63 531.78 8.62 531.81L9.37 532.21 9.37 530.35 8.29 529.75C8.26 529.73 8.23 529.7 8.22 529.67 8.2 529.64 8.19 529.61 8.19 529.58L8.19 529.05 7.65 529.05C7.61 529.18 7.52 529.28 7.4 529.34 7.29 529.41 7.16 529.43 7.03 529.41 6.9 529.39 6.78 529.32 6.69 529.22 6.61 529.12 6.56 528.99 6.56 528.86 6.56 528.73 6.61 528.6 6.69 528.5 6.78 528.4 6.9 528.33 7.03 528.3 7.16 528.28 7.29 528.3 7.4 528.37 7.52 528.43 7.61 528.54 7.65 528.66L8.19 528.66 8.19 528.17 6.09 526.89 5.07 527.5 5.07 529.64 6.16 530.27C6.26 530.2 6.38 530.16 6.51 530.16 6.63 530.16 6.75 530.21 6.85 530.29 6.94 530.37 7.01 530.48 7.04 530.6 7.06 530.73 7.05 530.85 6.99 530.97 6.93 531.08 6.84 531.17 6.73 531.22 6.62 531.28 6.49 531.29 6.36 531.26 6.24 531.23 6.13 531.16 6.05 531.06 5.98 530.97 5.93 530.84 5.93 530.72 5.93 530.68 5.94 530.64 5.95 530.6L4.78 529.93C4.75 529.91 4.73 529.89 4.71 529.86 4.69 529.83 4.68 529.8 4.68 529.76L4.68 527.5 3.66 526.89 2.73 527.45 2.73 528.83 2.34 528.83 2.34 527.69 1.56 528.17 1.56 529.47 2.54 530.02 3.51 529.47 3.51 528.47 3.9 528.47 3.9 529.58C3.9 529.61 3.89 529.64 3.88 529.67 3.86 529.7 3.83 529.73 3.8 529.75L2.73 530.35 2.73 531.28 3.8 531.98C3.83 532 3.85 532.02 3.87 532.05 3.89 532.08 3.89 532.11 3.89 532.15L3.89 532.8 4.67 532.34 4.67 531.51 3.65 530.9 3.85 530.57 4.97 531.23C5 531.25 5.03 531.28 5.04 531.31 5.06 531.33 5.07 531.37 5.07 531.4L5.07 533.94 5.96 533.94C6.01 533.81 6.1 533.71 6.21 533.65 6.32 533.58 6.46 533.56 6.58 533.58 6.71 533.61 6.83 533.67 6.91 533.77 7 533.87 7.04 534 7.04 534.13 7.04 534.26 6.99 534.38 6.9 534.47 6.82 534.57 6.7 534.63 6.58 534.65 6.46 534.67 6.33 534.65 6.22 534.6 6.1 534.54 6.01 534.44 5.96 534.33L5.07 534.33 5.07 535.28ZM2.85 535.39 3.66 535.89 4.68 535.28 4.68 532.79 2.5 534.08 2.31 533.74 3.51 533.03 3.51 532.25 2.54 531.61 1.44 532.22 1.25 531.88 2.35 531.27 2.35 530.35 1.37 529.8 0.4 530.35 0.4 531.06 1.23 530.57 1.43 530.91 0.39 531.51 0.39 532.43 1.37 532.98 2.35 532.4 2.55 532.73 1.56 533.32 1.56 534.61 2.44 535.15 3.46 534.55 3.47 534.57 3.52 534.55 3.71 534.88 2.85 535.39ZM6.49 533.94C6.46 533.94 6.42 533.95 6.39 533.97 6.37 533.99 6.34 534.02 6.33 534.05 6.32 534.08 6.31 534.11 6.32 534.15 6.33 534.18 6.34 534.21 6.37 534.23 6.39 534.26 6.42 534.27 6.45 534.28 6.49 534.29 6.52 534.28 6.55 534.27 6.58 534.26 6.61 534.24 6.63 534.21 6.65 534.18 6.66 534.15 6.66 534.11 6.66 534.07 6.64 534.03 6.61 534 6.57 533.97 6.53 533.95 6.49 533.95L6.49 533.94ZM8.07 531.55C8.03 531.55 8 531.56 7.97 531.57 7.94 531.59 7.92 531.62 7.91 531.65 7.9 531.68 7.89 531.72 7.9 531.75 7.91 531.78 7.92 531.81 7.95 531.84 7.97 531.86 8 531.88 8.03 531.88 8.07 531.89 8.1 531.89 8.13 531.87 8.16 531.86 8.19 531.84 8.21 531.81 8.22 531.78 8.23 531.75 8.23 531.72 8.23 531.67 8.21 531.63 8.18 531.6 8.15 531.57 8.11 531.55 8.07 531.55L8.07 531.55ZM6.49 530.54C6.46 530.54 6.42 530.55 6.39 530.57 6.37 530.59 6.34 530.61 6.33 530.65 6.32 530.68 6.31 530.71 6.32 530.74 6.33 530.78 6.34 530.81 6.37 530.83 6.39 530.85 6.42 530.87 6.45 530.88 6.49 530.88 6.52 530.88 6.55 530.87 6.58 530.86 6.61 530.83 6.63 530.81 6.65 530.78 6.66 530.74 6.66 530.71 6.66 530.67 6.64 530.63 6.61 530.6 6.57 530.57 6.53 530.55 6.49 530.55L6.49 530.54ZM7.12 528.69C7.09 528.69 7.05 528.7 7.03 528.72 7 528.73 6.98 528.76 6.96 528.79 6.95 528.82 6.95 528.86 6.95 528.89 6.96 528.92 6.98 528.95 7 528.98 7.02 529 7.05 529.02 7.09 529.02 7.12 529.03 7.15 529.03 7.18 529.01 7.22 529 7.24 528.98 7.26 528.95 7.28 528.92 7.29 528.89 7.29 528.86 7.29 528.83 7.29 528.81 7.28 528.79 7.27 528.77 7.26 528.75 7.24 528.74 7.22 528.72 7.21 528.71 7.18 528.7 7.16 528.69 7.14 528.69 7.12 528.69Z" stroke-width="0.75" stroke-linecap="butt" fill="#FFFFFF"/></g><g id="shape3301-483"><text fill="#000000" font-family="Calibri" font-size="75%" x="-25.35" y="544.42">Machine Learning</text></g></g><g id="group3304-485" transform="translate(562.388 -399.6)"><g id="shape3305-486"><rect x="0" y="507.518" width="54" height="28.8" stroke="#CD8300" stroke-width="2" stroke-linecap="round" stroke-linejoin="round" fill="#FFFFFF"/><text fill="#CD8300" font-family="Calibri" font-size="66.6664%" x="19.17" y="519.52">Push <tspan font-size="100%" x="6.75" dy="1.2em">notifications</tspan></text></g></g><g id="group3310-490" transform="translate(347.344 -207)"><g id="shape3311-491"><path d="M18.09 536.32 54.28 536.32C64.2728 536.318 72.3719 528.216 72.37 518.223 72.37 518.222 72.37 518.221 72.37 518.22L72.37 510.05C72.3736 500.057 64.2758 491.954 54.283 491.95 54.282 491.95 54.281 491.95 54.28 491.95L18.09 491.95C8.09724 491.952-0.00193303 500.054-6.76786e-07 510.047-4.83314e-07 510.048-2.06856e-07 510.049 1.52588e-07 510.05L0 518.22C-0.00359004 528.213 8.09424 536.316 18.087 536.32 18.088 536.32 18.089 536.32 18.09 536.32Z" stroke="#CD8300" stroke-width="2" stroke-linecap="round" stroke-linejoin="round" fill="#FFFFFF" fill-opacity="0.79"/><text fill="#CD8300" font-family="Calibri" font-size="66.6664%" x="10.07" y="503.15">Message Broker</text></g></g><g id="group3321-494" transform="translate(580.4 -355.5)"><g id="shape3322-495"><path d="M18 518.32 0 518.32 0 536.32 18 536.32 18 518.32Z" stroke-width="0.75" stroke-linecap="butt" fill="#D86613"/></g><g id="shape3323-497" transform="translate(3.23983 -2.51729)"><path d="M5.76 536.32C5.72 536.32 5.68 536.31 5.64 536.29L0.12 533.1C0.08 533.08 0.05 533.05 0.03 533.01 0.01 532.97 0 532.93 0 532.89L0 526.52C0 526.47 0.01 526.43 0.03 526.4 0.05 526.36 0.08 526.33 0.12 526.31L5.16 523.38C5.2 523.36 5.24 523.35 5.28 523.35 5.32 523.35 5.36 523.36 5.4 523.38 5.44 523.4 5.47 523.44 5.49 523.47 5.51 523.51 5.52 523.55 5.52 523.59L5.52 526.35C5.52 526.4 5.51 526.44 5.49 526.48 5.47 526.51 5.44 526.54 5.4 526.56L2.88 528.03 2.88 531.36 5.76 533.03 8.27 531.59C8.31 531.57 8.35 531.55 8.39 531.55 8.44 531.55 8.48 531.57 8.51 531.59L10.91 532.97C10.95 532.99 10.98 533.02 11 533.06 11.02 533.1 11.03 533.14 11.03 533.18 11.03 533.22 11.02 533.26 11 533.3 10.98 533.34 10.95 533.37 10.91 533.39L5.88 536.29C5.84 536.31 5.8 536.32 5.76 536.32ZM0.48 532.75 5.76 535.8 10.32 533.16 8.4 532.05 5.88 533.51C5.84 533.54 5.8 533.55 5.76 533.55 5.72 533.55 5.68 533.54 5.64 533.51L2.52 531.71C2.48 531.69 2.45 531.66 2.43 531.62 2.41 531.59 2.4 531.55 2.4 531.5L2.4 527.9C2.4 527.86 2.41 527.82 2.43 527.78 2.45 527.75 2.48 527.72 2.52 527.69L5.04 526.23 5.04 524.01 0.48 526.65 0.48 532.75Z" stroke-width="0.75" stroke-linecap="butt" fill="#FFFFFF"/></g><g id="shape3324-499" transform="translate(9.23983 -6.25649)"><path d="M5.28 536.32C5.24 536.32 5.2 536.31 5.16 536.29L2.76 534.91C2.72 534.89 2.69 534.86 2.67 534.82 2.65 534.78 2.65 534.74 2.65 534.7L2.65 531.77 0.12 530.33C0.08 530.31 0.05 530.28 0.03 530.25 0.01 530.21 0 530.17 0 530.13L0 527.36C0 527.32 0.01 527.27 0.03 527.24 0.05 527.2 0.08 527.17 0.12 527.15 0.16 527.13 0.2 527.12 0.24 527.12 0.28 527.12 0.32 527.13 0.36 527.15L5.4 530.05C5.44 530.07 5.47 530.1 5.49 530.13 5.51 530.17 5.52 530.21 5.52 530.25L5.52 536.08C5.52 536.14 5.49 536.2 5.45 536.25 5.4 536.29 5.34 536.32 5.28 536.32ZM3.12 534.56 5.04 535.66 5.04 530.39 0.48 527.77 0.48 529.99 3 531.43C3.04 531.45 3.07 531.48 3.09 531.52 3.11 531.55 3.12 531.59 3.12 531.63L3.12 534.56Z" stroke-width="0.75" stroke-linecap="butt" fill="#FFFFFF"/></g><g id="shape3325-501" transform="translate(7.8 -7.3224)"><path d="M0 536.32 0 532.72 0.48 532.72 0.48 534.36 2.04 532.72 2.67 532.72 1.05 534.47 2.82 536.32 2.16 536.32 0.48 534.64 0.48 536.32 0 536.32Z" stroke-width="0.75" stroke-linecap="butt" fill="#FFFFFF"/></g><g id="shape3321-503"><text fill="#000000" font-family="Calibri" font-size="75%" x="-13.49" y="544.42">Amazon EKS</text></g></g><g id="group3331-505" transform="translate(473.374 -206.912)"><g id="shape3326-506"><path d="M10.62 515.38C4.76 515.38 0 513.68 0 511.45L0 532.39C0 534.54 4.67 536.28 10.47 536.32L10.62 536.32C16.49 536.32 21.24 534.62 21.24 532.39L21.24 511.45C21.24 513.63 16.49 515.38 10.62 515.38Z" stroke-width="0.75" stroke-linecap="butt" fill="url(#grad0-509)"/></g><g id="shape3327-510" transform="translate(-5.9952e-15 -20.9393)"><path d="M21.24 532.39C21.24 534.57 16.49 536.32 10.62 536.32 4.76 536.32 0 534.62 0 532.39 0 530.15 4.76 528.46 10.62 528.46 16.49 528.46 21.24 530.15 21.24 532.39Z" stroke-width="0.75" stroke-linecap="butt" fill="#E8E8E8"/></g><g id="shape3328-512" transform="translate(2.46886 -22.6842)"><path d="M16.3 533.81C16.3 535.2 12.64 536.32 8.15 536.32 3.66 536.32 0 535.2 0 533.81 0 532.42 3.66 531.32 8.15 531.32 12.64 531.32 16.3 532.44 16.3 533.81Z" stroke-width="0.75" stroke-linecap="butt" fill="#50E6FF"/></g><g id="shape3329-514" transform="translate(4.17552 -22.6842)"><path d="M6.45 534.44C4.26213 534.381 2.08049 534.705-1.90735e-07 535.4 2.08184 536.086 4.26415 536.397 6.45 536.32 8.63707 536.383 10.8176 536.047 12.89 535.33 10.8067 534.669 8.63013 534.369 6.45 534.44Z" stroke-width="0.75" stroke-linecap="butt" fill="#198AB3"/></g><g id="shape3330-516" transform="translate(2.65112 -7.31859)"><path d="M14.43 533.3 14.43 527.54 12.94 527.54 12.94 534.54 17.02 534.54 17.02 533.3 14.43 533.3ZM2.6 530.47C2.29423 530.344 2.01051 530.169 1.76 529.95 1.62499 529.804 1.55329 529.609 1.56117 529.408 1.55083 529.206 1.64521 529.013 1.80971 528.9 2.01118 528.754 2.25367 528.681 2.5 528.69 3.09215 528.665 3.67583 528.84 4.16 529.19L4.16 527.73C3.6296 527.529 3.06536 527.437 2.5 527.46 1.85271 527.424 1.2143 527.627 0.7 528.03 0.242359 528.389-0.0182276 528.951-2.50339e-07 529.54 0 530.41 0.53 531.08 1.66 531.59 2.0234 531.749 2.36603 531.954 2.68 532.2 2.8368 532.335 2.92771 532.533 2.92854 532.742 2.92863 532.951 2.82982 533.146 2.66343 533.267 2.43819 533.401 2.17989 533.464 1.92 533.45 1.25584 533.443 0.616476 533.191 0.12 532.74L0.12 534.32C0.666005 534.609 1.27542 534.75 1.89 534.73 2.58286 534.771 3.26916 534.574 3.84 534.17 4.25355 533.772 4.45766 533.197 4.39 532.62 4.39774 532.189 4.25204 531.77 3.98 531.44 3.5919 531.021 3.12165 530.69 2.6 530.47ZM11.28 533.17C11.6583 532.524 11.849 531.782 11.83 531.03 11.7907 530.397 11.602 529.782 11.28 529.24 11.0212 528.711 10.6184 528.27 10.12 527.97 9.61695 527.679 9.04812 527.527 8.47 527.53 7.8447 527.514 7.22655 527.669 6.68 527.98 6.16746 528.273 5.74764 528.711 5.47 529.24 5.17715 529.839 5.02966 530.501 5.04 531.17 5.0417 531.756 5.17513 532.335 5.43 532.86 5.68367 533.387 6.08372 533.825 6.58 534.12 7.08214 534.43 7.65385 534.602 8.24 534.62L9.66 536.32 11.66 536.32 9.63 534.45C10.3126 534.24 10.8983 533.786 11.28 533.17ZM9.63 532.74C9.32541 533.131 8.85884 533.353 8.37 533.34 7.87834 533.356 7.40913 533.129 7.11 532.73 6.75863 532.239 6.58858 531.637 6.63 531.03 6.59234 530.427 6.76213 529.829 7.11 529.34 7.42472 528.941 7.89895 528.71 8.4 528.71 8.89138 528.69 9.35882 528.927 9.64 529.34 9.96651 529.838 10.1246 530.432 10.09 531.03 10.1487 531.638 9.9848 532.248 9.63 532.74Z" stroke-width="0.75" stroke-linecap="butt" fill="url(#grad3-519)"/></g><g id="shape3331-520"><text fill="#000000" font-family="Calibri" font-size="49.9992%" x="-6.25" y="545.14">SQL Database</text></g></g><g id="group3332-522" transform="translate(471.24 -160.288)"><g id="group3333-523"><g id="group3334-524" transform="translate(16.74 -4.86)"><g id="shape3335-525"><path d="M4.98 517.36 0 526.84 4.98 536.32 7.02 535.18 7.02 518.5 4.98 517.36Z" stroke-width="0.749999" stroke-linecap="butt" fill="#E25444"/></g></g><g id="group3336-527" transform="translate(6.69 -4.86)"><g id="shape3337-528"><path d="M15.03 517.36 5.07 518.5 0 526.84 5.07 535.18 15.03 536.32 15.03 517.36Z" stroke-width="0.749999" stroke-linecap="butt" fill="#7B1D13"/></g></g><g id="group3338-530" transform="translate(1.19904e-13 -4.86)"><g id="shape3339-531"><path d="M1.62 517.36 0 518.08 0 535.6 1.62 536.32 11.76 526.84 1.62 517.36Z" stroke-width="0.749999" stroke-linecap="butt" fill="#58150D"/></g></g><g id="group3340-533" transform="translate(1.59822 -4.85334)"><g id="shape3341-534"><path d="M0 517.33 10.18 520.16 10.18 533.76 0 536.32 0 517.33Z" stroke-width="0.749999" stroke-linecap="butt" fill="#E25444"/></g></g><g id="group3342-536" transform="translate(7.4583 -19.52)"><g id="shape3343-537"><path d="M4.32 536.32 0 535.62 4.32 530.72 8.63 535.62 4.32 536.32Z" stroke-width="0.749999" stroke-linecap="butt" fill="#000000"/></g></g><g id="group3344-539" transform="translate(7.4583 -19.5094)"><g id="shape3345-540"><path d="M8.63 535.61 4.32 536.32 0 535.61 0 530.71 8.63 535.61Z" fill="#58150D"/></g><g id="shape3346-542"><path d="M8.63 535.61 4.32 536.32 0 535.61 0 530.71 8.63 535.61Z"/><path d="M8.63 535.61 4.32 536.32 0 535.61 0 530.71" stroke-width="0.749999" stroke-linecap="butt"/></g></g><g id="group3347-545" transform="translate(7.4583 -4.21332)"><g id="shape3348-546"><path d="M4.32 531.3 0 532.1 4.32 536.32 8.63 532.1 4.32 531.3Z" stroke-width="0.749999" stroke-linecap="butt" fill="#58150D"/></g></g><g id="group3349-548" transform="translate(7.44 -20.22)"><g id="shape3350-549"><path d="M4.32 527.74 0 530.02 0 536.32 4.33 535.1 4.32 527.74Z" stroke-width="0.749999" stroke-linecap="butt" fill="#7B1D13"/></g></g><g id="group3351-551" transform="translate(7.4583 -10.72)"><g id="shape3352-552"><path d="M4.32 529.06 0 529.53 0 535.82 4.32 536.32 4.32 529.06Z" stroke-width="0.749999" stroke-linecap="butt" fill="#7B1D13"/></g></g><g id="group3353-554" transform="translate(7.4583 -1.13687e-13)"><g id="shape3354-555"><path d="M4.32 528.96 0 527.88 0 534.06 4.32 536.32 4.32 528.96Z" stroke-width="0.749999" stroke-linecap="butt" fill="#7B1D13"/></g></g><g id="group3355-557" transform="translate(11.7734 -1.13687e-13)"><g id="shape3356-558"><path d="M4.32 527.88 0 528.96 0 536.32 4.32 534.06 4.32 527.88Z" stroke-width="0.749999" stroke-linecap="butt" fill="#E25444"/></g></g><g id="group3357-560" transform="translate(11.7734 -10.72)"><g id="shape3358-561"><path d="M0 529.06 4.32 529.53 4.32 535.82 0 536.32 0 529.06Z" stroke-width="0.749999" stroke-linecap="butt" fill="#E25444"/></g></g><g id="group3359-563" transform="translate(11.76 -20.22)"><g id="shape3360-564"><path d="M0 527.74 4.32 530.02 4.32 536.32 0 535.12 0 527.74Z" stroke-width="0.749999" stroke-linecap="butt" fill="#E25444"/></g></g></g><g id="shape3332-566"><text fill="#000000" font-family="Calibri" font-size="49.9992%" x="-0.98" y="541.9">Amazon S3</text></g></g><g id="shape3361-568" transform="translate(494.617 -210.347)"><path d="M6.68 527.32 7.04 527.32C20.68 527.32 40.13 527.32 53.77 527.32" stroke="#4F4640" stroke-linecap="round" stroke-linejoin="round" marker-start="url(#mrkr4-313)" marker-end="url(#mrkr4-354)"/></g><g id="shape3362-575" transform="translate(495 -165.628)"><path d="M6.68 527.32 7.04 527.32C20.58 527.32 39.85 527.32 53.39 527.32" stroke="#4F4640" stroke-linecap="round" stroke-linejoin="round" marker-start="url(#mrkr4-313)" marker-end="url(#mrkr4-354)"/></g><g id="group3363-582" transform="translate(468.935 -253.379)"><g id="group3364-583"><g id="shape3365-584"><rect x="0" y="506.196" width="30.1211" height="30.1211" stroke-width="0.75" stroke-linecap="butt" fill="url(#grad0-587)"/></g><g id="shape3366-588" transform="translate(5.6477 -4.14165)"><path d="M7.34 515.61C11.22 515.61 13.93 516.79 13.93 517.86 13.93 518.92 11.22 520.11 7.34 520.11 3.46 520.11 0.75 518.92 0.75 517.86 0.75 516.79 3.46 515.61 7.34 515.61ZM7.26 535.57C3.43 535.57 0.75 534.36 0.75 533.27L0.75 530C1.93 530.98 4.32 531.63 7.21 531.63 7.88 531.63 8.55 531.59 9.21 531.52L9.13 530.77C8.5 530.84 7.85 530.88 7.21 530.88 3.63 530.88 1.07 529.81 0.75 528.78L0.75 524.74C1.93 525.73 4.32 526.37 7.21 526.37 7.9 526.37 8.57 526.33 9.21 526.26L9.13 525.51C8.51 525.58 7.87 525.62 7.21 525.62 3.63 525.62 1.07 524.56 0.75 523.53L0.75 519.21C1.84 520.13 4.07 520.86 7.34 520.86 10.61 520.86 12.85 520.13 13.93 519.21L13.93 520.48 14.68 520.48 14.68 517.86C14.68 516.4 12.11 514.86 7.34 514.86 2.57 514.86 0 516.4 0 517.86L0 533.27C0 535.01 3.12 536.32 7.26 536.32 10.59 536.32 13.4 535.44 14.26 534.13L13.62 533.72C13.03 534.64 10.65 535.57 7.26 535.57ZM16.27 526.21C16.48 526.21 16.67 526.3 16.79 526.45 17.03 526.73 16.99 527.16 16.97 527.31 16.98 528.1 17.42 528.26 17.47 528.27 17.63 528.32 17.74 528.48 17.74 528.64 17.74 528.81 17.62 528.96 17.46 529 17.42 529.01 16.97 529.17 16.97 529.99 16.98 530.43 16.77 530.92 16.28 530.94L15.99 530.94 15.99 530.19 16.19 530.19C16.2 530.14 16.22 530.06 16.22 530 16.22 529.31 16.44 528.89 16.69 528.64 16.44 528.38 16.22 527.96 16.22 527.28 16.22 527.26 16.22 527.24 16.22 527.21 16.24 527.13 16.24 527.03 16.22 526.97L15.99 526.97 15.99 526.21 16.27 526.21ZM14.51 526.21 14.8 526.21 14.8 526.97 14.6 526.97C14.58 527.01 14.57 527.09 14.57 527.16 14.57 527.84 14.34 528.26 14.1 528.51 14.34 528.77 14.57 529.19 14.57 529.87 14.57 529.89 14.57 529.92 14.56 529.94 14.55 530.02 14.55 530.12 14.56 530.19L14.8 530.19 14.8 530.94 14.52 530.94C14.31 530.94 14.12 530.85 13.99 530.7 13.76 530.42 13.79 529.99 13.82 529.84 13.81 529.05 13.37 528.89 13.32 528.88 13.16 528.83 13.04 528.68 13.05 528.51 13.05 528.34 13.16 528.19 13.33 528.15 13.37 528.14 13.82 527.98 13.82 527.16 13.81 526.72 14.02 526.23 14.51 526.21ZM18.45 532.49 12.05 532.49 12.05 523.49 16.19 523.49 16.19 524.99C16.19 525.19 16.36 525.36 16.57 525.36L18.45 525.36 18.45 532.49ZM16.94 523.49 17.04 523.49 18.17 524.61 16.94 524.61 16.94 523.49ZM19.09 524.46 17.46 522.84C17.39 522.77 17.29 522.73 17.19 522.73L16.94 522.73 16.81 522.73 15.64 521.37C15.57 521.28 15.47 521.23 15.36 521.23L10.17 521.23C9.96 521.23 9.79 521.4 9.79 521.61L9.79 531.36C9.79 531.57 9.96 531.74 10.17 531.74L10.92 531.74 10.92 530.99 10.54 530.99 10.54 521.98 15.18 521.98 15.82 522.73 11.67 522.73C11.46 522.73 11.3 522.9 11.3 523.11L11.3 532.86C11.3 533.07 11.46 533.24 11.67 533.24L18.83 533.24C19.03 533.24 19.2 533.07 19.2 532.86L19.2 524.73C19.2 524.63 19.16 524.53 19.09 524.46Z" stroke-width="0.75" stroke-linecap="butt" fill="#FFFFFF"/></g><g id="shape3364-590"><text fill="#000000" font-family="Calibri" font-size="49.9992%" x="-1.59" y="544">DocumentDB</text></g></g></g><g id="shape3367-592" transform="translate(499.056 -258.75)"><path d="M6.68 527.32 7.04 527.32C19.48 527.32 36.89 527.32 49.33 527.32" stroke="#4F4640" stroke-linecap="round" stroke-linejoin="round" marker-start="url(#mrkr4-313)" marker-end="url(#mrkr4-354)"/></g><g id="group3369-599" transform="translate(568.479 -414)"><g id="group3370-600"><g id="shape3371-601"><rect x="0" y="526.547" width="9.77065" height="9.77065" stroke-width="0.75" stroke-linecap="butt" fill="url(#grad0-604)"/></g><g id="shape3372-605" transform="translate(1.58773 -1.78881)"><path d="M6.54 531.75 5.86 531.58C6.53 532.75 6.43 534.27 5.57 535.25 4.99 535.92 4.12 536.27 3.26 536.27 2.75 536.27 2.24 536.15 1.79 535.9L1.9 535.69C3.04 536.32 4.54 536.06 5.39 535.09 6.18 534.18 6.27 532.77 5.65 531.69L5.47 532.4 5.24 532.34 5.48 531.36C5.5 531.29 5.56 531.25 5.63 531.27L6.6 531.52 6.54 531.75ZM0.95 534.64 1.12 533.93 1.36 533.99 1.12 534.97C1.1 535.02 1.05 535.06 1 535.06 0.99 535.06 0.98 535.06 0.97 535.06L0 534.81 0.06 534.57 0.73 534.74C0.07 533.6 0.18 532.18 1.03 531.2 1.97 530.13 3.56 529.86 4.81 530.55L4.69 530.76C3.54 530.12 2.08 530.38 1.21 531.36 0.42 532.27 0.33 533.58 0.95 534.64ZM2.25 533.68C2.4 533.68 2.53 533.8 2.53 533.96 2.53 534.12 2.4 534.24 2.25 534.24 2.09 534.24 1.97 534.12 1.97 533.96 1.97 533.8 2.09 533.68 2.25 533.68ZM3.16 532.59C3.2 532.6 3.25 532.61 3.3 532.61 3.34 532.61 3.39 532.61 3.43 532.59L3.88 533.57C3.8 533.64 3.75 533.73 3.72 533.84L2.75 533.84C2.73 533.73 2.68 533.64 2.6 533.57L3.16 532.59ZM3.3 531.8C3.45 531.8 3.58 531.93 3.58 532.08 3.58 532.24 3.45 532.37 3.3 532.37 3.14 532.37 3.02 532.24 3.02 532.08 3.02 531.93 3.14 531.8 3.3 531.8ZM4.51 533.96C4.51 534.12 4.38 534.24 4.23 534.24 4.08 534.24 3.95 534.12 3.95 533.96 3.95 533.8 4.08 533.68 4.23 533.68 4.38 533.68 4.51 533.8 4.51 533.96ZM2.25 534.49C2.49 534.49 2.7 534.31 2.75 534.08L3.72 534.08C3.78 534.31 3.98 534.49 4.23 534.49 4.52 534.49 4.75 534.25 4.75 533.96 4.75 533.67 4.52 533.43 4.23 533.43 4.18 533.43 4.14 533.44 4.09 533.45L3.64 532.48C3.75 532.38 3.82 532.24 3.82 532.08 3.82 531.79 3.59 531.56 3.3 531.56 3.01 531.56 2.77 531.79 2.77 532.08 2.77 532.24 2.84 532.38 2.95 532.47L2.39 533.45C2.34 533.44 2.3 533.43 2.25 533.43 1.96 533.43 1.72 533.67 1.72 533.96 1.72 534.25 1.96 534.49 2.25 534.49Z" stroke-width="0.75" stroke-linecap="butt" fill="#FFFFFF"/></g></g></g><g id="group3373-607" transform="translate(372.24 -211.952)"><g id="group3374-608"><g id="shape3375-609"><rect x="0" y="512.558" width="23.76" height="23.76" stroke-width="0.75" stroke-linecap="butt" fill="url(#grad0-612)"/></g><g id="shape3376-613" transform="translate(4.158 -4.2794)"><path d="M6.54 527.82 6.54 525.15 7.13 525.15 7.13 526.34 7.93 525.15 8.59 525.15 7.66 526.4 8.66 527.82 7.96 527.82 7.13 526.53 7.13 527.82 6.54 527.82ZM15.44 531.42 15.25 531.6C14.85 531.95 14.31 532.12 13.77 532.12 13.23 532.12 12.69 531.95 12.29 531.6L11.89 531.25C11.31 530.74 10.3 530.74 9.72 531.25L9.32 531.6C8.52 532.3 7.16 532.3 6.36 531.6L5.97 531.25C5.38 530.74 4.37 530.74 3.79 531.25L3.39 531.6C2.59 532.3 1.23 532.3 0.43 531.6L0.24 531.42 0.62 530.98 0.82 531.15C1.4 531.66 2.42 531.66 3 531.15L3.4 530.8C4.2 530.1 5.55 530.1 6.35 530.81L6.75 531.15C7.33 531.66 8.35 531.66 8.93 531.15L9.33 530.8C10.13 530.1 11.48 530.1 12.28 530.81L12.68 531.15C13.26 531.66 14.28 531.66 14.86 531.15L15.06 530.98 15.44 531.42ZM14.82 535 15.21 535.44 15.01 535.62C14.61 535.97 14.07 536.14 13.53 536.14 12.99 536.14 12.45 535.97 12.05 535.61L11.66 535.27C11.08 534.76 10.06 534.76 9.48 535.27L9.08 535.62C8.28 536.32 6.93 536.32 6.13 535.61L5.73 535.27C5.15 534.76 4.13 534.76 3.55 535.27L3.15 535.62C2.35 536.32 1 536.32 0.2 535.61L0 535.44 0.39 535 0.59 535.17C1.17 535.68 2.18 535.68 2.76 535.17L3.16 534.82C3.96 534.12 5.32 534.12 6.12 534.82L6.51 535.17C7.1 535.68 8.11 535.68 8.69 535.17L9.09 534.82C9.89 534.12 11.24 534.12 12.05 534.82L12.44 535.17C13.02 535.68 14.04 535.68 14.62 535.17L14.82 535ZM14.82 533.11 15.21 533.56 15.01 533.73C14.21 534.44 12.85 534.44 12.05 533.73L11.66 533.39C11.08 532.88 10.06 532.88 9.48 533.39L9.08 533.74C8.68 534.09 8.14 534.26 7.6 534.26 7.07 534.26 6.53 534.09 6.13 533.73L5.73 533.39C5.15 532.88 4.13 532.88 3.55 533.39L3.15 533.74C2.35 534.44 1 534.44 0.2 533.73L0 533.56 0.39 533.11 0.59 533.29C1.17 533.8 2.18 533.8 2.76 533.29L3.16 532.94C3.96 532.24 5.32 532.24 6.12 532.94L6.51 533.29C7.1 533.8 8.11 533.8 8.69 533.29L9.09 532.94C9.89 532.24 11.25 532.24 12.05 532.94L12.44 533.29C13.02 533.8 14.04 533.8 14.62 533.29L14.82 533.11ZM2.98 528.12C3.31 528.12 3.57 528.38 3.57 528.71 3.57 529.04 3.31 529.3 2.98 529.3 2.65 529.3 2.39 529.04 2.39 528.71 2.39 528.38 2.65 528.12 2.98 528.12ZM7.43 521.89C7.75 521.89 8.02 522.15 8.02 522.48 8.02 522.81 7.75 523.07 7.43 523.07 7.1 523.07 6.83 522.81 6.83 522.48 6.83 522.15 7.1 521.89 7.43 521.89ZM12.46 528.71C12.46 529.04 12.2 529.3 11.87 529.3 11.54 529.3 11.28 529.04 11.28 528.71 11.28 528.38 11.54 528.12 11.87 528.12 12.2 528.12 12.46 528.38 12.46 528.71ZM7.43 523.67C7.62 523.67 7.81 523.61 7.97 523.53L10.99 527.92C10.87 528.06 10.78 528.23 10.73 528.41L4.12 528.41C4.08 528.23 3.98 528.06 3.86 527.92L6.88 523.53C7.04 523.61 7.23 523.67 7.43 523.67ZM2.98 529.9C3.53 529.9 3.99 529.52 4.12 529.01L10.73 529.01C10.86 529.52 11.32 529.9 11.87 529.9 12.53 529.9 13.06 529.36 13.06 528.71 13.06 528.05 12.53 527.52 11.87 527.52 11.73 527.52 11.61 527.55 11.48 527.59L8.42 523.13C8.54 522.94 8.61 522.72 8.61 522.48 8.61 521.82 8.08 521.29 7.43 521.29 6.77 521.29 6.24 521.82 6.24 522.48 6.24 522.72 6.31 522.94 6.44 523.13L3.37 527.59C3.25 527.55 3.12 527.52 2.98 527.52 2.33 527.52 1.79 528.05 1.79 528.71 1.79 529.36 2.33 529.9 2.98 529.9Z" stroke-width="0.75" stroke-linecap="butt" fill="#FFFFFF"/></g></g></g></g></svg>